<mxfile host="app.diagrams.net" modified="2023-12-31T02:14:26.794Z" agent="Mozilla/5.0 (Macintosh; Intel Mac OS X 10_15_7) AppleWebKit/537.36 (KHTML, like Gecko) Chrome/120.0.0.0 Safari/537.36" etag="rmXPlcgE-GYSdcGUPjVU" version="22.1.11" type="device">
  <diagram name="Page-1" id="D3KC7NWFIsjzDvF6gdU6">
    <mxGraphModel dx="3023" dy="1345" grid="1" gridSize="10" guides="1" tooltips="1" connect="1" arrows="1" fold="1" page="1" pageScale="1" pageWidth="850" pageHeight="1100" math="1" shadow="0">
      <root>
        <mxCell id="0" />
        <mxCell id="1" parent="0" />
        <mxCell id="p87asnX_9dNi2kme-AvX-11" style="edgeStyle=orthogonalEdgeStyle;orthogonalLoop=1;jettySize=auto;html=1;entryX=0.5;entryY=0;entryDx=0;entryDy=0;shadow=0;fillColor=#60a917;strokeColor=#808080;strokeWidth=1;rounded=1;fontFamily=Helvetica;" edge="1" parent="1" source="p87asnX_9dNi2kme-AvX-3" target="p87asnX_9dNi2kme-AvX-10">
          <mxGeometry relative="1" as="geometry" />
        </mxCell>
        <mxCell id="p87asnX_9dNi2kme-AvX-3" value="&lt;font&gt;User&#39;s input&lt;br&gt;(Text)&lt;/font&gt;" style="rounded=1;whiteSpace=wrap;html=1;fillColor=#b0e3e6;strokeColor=#0e8088;shadow=0;fontFamily=Helvetica;" vertex="1" parent="1">
          <mxGeometry x="-720" y="20" width="120" height="60" as="geometry" />
        </mxCell>
        <mxCell id="p87asnX_9dNi2kme-AvX-9" style="edgeStyle=orthogonalEdgeStyle;orthogonalLoop=1;jettySize=auto;html=1;entryX=0;entryY=0.5;entryDx=0;entryDy=0;shadow=0;fillColor=#60a917;strokeColor=#808080;strokeWidth=1;rounded=1;fontFamily=Helvetica;" edge="1" parent="1" source="p87asnX_9dNi2kme-AvX-4" target="p87asnX_9dNi2kme-AvX-7">
          <mxGeometry relative="1" as="geometry" />
        </mxCell>
        <mxCell id="p87asnX_9dNi2kme-AvX-36" style="edgeStyle=orthogonalEdgeStyle;orthogonalLoop=1;jettySize=auto;html=1;entryX=0;entryY=0.5;entryDx=0;entryDy=0;fillColor=#60a917;strokeColor=#808080;strokeWidth=1;rounded=1;fontFamily=Helvetica;" edge="1" parent="1" source="p87asnX_9dNi2kme-AvX-4" target="p87asnX_9dNi2kme-AvX-6">
          <mxGeometry relative="1" as="geometry" />
        </mxCell>
        <mxCell id="p87asnX_9dNi2kme-AvX-4" value="&lt;font&gt;Azure Cognitive&lt;br&gt;(TTS service)&lt;/font&gt;" style="rounded=1;whiteSpace=wrap;html=1;fillColor=#d0cee2;strokeColor=#56517e;shadow=0;fontFamily=Helvetica;" vertex="1" parent="1">
          <mxGeometry x="-720" y="690" width="120" height="60" as="geometry" />
        </mxCell>
        <mxCell id="p87asnX_9dNi2kme-AvX-28" style="edgeStyle=orthogonalEdgeStyle;orthogonalLoop=1;jettySize=auto;html=1;entryX=0;entryY=0.5;entryDx=0;entryDy=0;shadow=0;fillColor=#60a917;strokeColor=#808080;strokeWidth=1;rounded=1;fontFamily=Helvetica;" edge="1" parent="1" source="p87asnX_9dNi2kme-AvX-6" target="p87asnX_9dNi2kme-AvX-27">
          <mxGeometry relative="1" as="geometry" />
        </mxCell>
        <mxCell id="p87asnX_9dNi2kme-AvX-6" value="Audio" style="rounded=1;whiteSpace=wrap;html=1;fillColor=#fad7ac;strokeColor=#b46504;shadow=0;fontFamily=Helvetica;" vertex="1" parent="1">
          <mxGeometry x="-510" y="810" width="120" height="60" as="geometry" />
        </mxCell>
        <mxCell id="p87asnX_9dNi2kme-AvX-32" style="edgeStyle=orthogonalEdgeStyle;orthogonalLoop=1;jettySize=auto;html=1;entryX=0;entryY=0.5;entryDx=0;entryDy=0;fillColor=#60a917;strokeColor=#808080;strokeWidth=1;rounded=1;fontFamily=Helvetica;" edge="1" parent="1" source="p87asnX_9dNi2kme-AvX-7" target="p87asnX_9dNi2kme-AvX-27">
          <mxGeometry relative="1" as="geometry" />
        </mxCell>
        <mxCell id="p87asnX_9dNi2kme-AvX-7" value="Visemes" style="rounded=1;whiteSpace=wrap;html=1;fillColor=#fad7ac;strokeColor=#b46504;shadow=0;fontFamily=Helvetica;" vertex="1" parent="1">
          <mxGeometry x="-510" y="590" width="120" height="60" as="geometry" />
        </mxCell>
        <mxCell id="p87asnX_9dNi2kme-AvX-39" value="" style="edgeStyle=orthogonalEdgeStyle;orthogonalLoop=1;jettySize=auto;html=1;fillColor=#60a917;strokeColor=#808080;strokeWidth=1;rounded=1;fontFamily=Helvetica;" edge="1" parent="1" source="p87asnX_9dNi2kme-AvX-10" target="p87asnX_9dNi2kme-AvX-19">
          <mxGeometry relative="1" as="geometry" />
        </mxCell>
        <mxCell id="p87asnX_9dNi2kme-AvX-10" value="&lt;font&gt;Prompt&lt;br&gt;&lt;/font&gt;" style="rounded=1;whiteSpace=wrap;html=1;fillColor=#d0cee2;strokeColor=#56517e;shadow=0;fontFamily=Helvetica;" vertex="1" parent="1">
          <mxGeometry x="-720" y="290" width="120" height="60" as="geometry" />
        </mxCell>
        <mxCell id="p87asnX_9dNi2kme-AvX-15" style="edgeStyle=orthogonalEdgeStyle;orthogonalLoop=1;jettySize=auto;html=1;entryX=0;entryY=0.5;entryDx=0;entryDy=0;shadow=0;fillColor=#60a917;strokeColor=#808080;strokeWidth=1;rounded=1;fontFamily=Helvetica;" edge="1" parent="1" source="p87asnX_9dNi2kme-AvX-12" target="p87asnX_9dNi2kme-AvX-10">
          <mxGeometry relative="1" as="geometry" />
        </mxCell>
        <mxCell id="p87asnX_9dNi2kme-AvX-12" value="&lt;font&gt;Avatar personality&lt;/font&gt;" style="rounded=1;whiteSpace=wrap;html=1;fillColor=#b0e3e6;strokeColor=#0e8088;shadow=0;fontFamily=Helvetica;" vertex="1" parent="1">
          <mxGeometry x="-970" y="180" width="120" height="60" as="geometry" />
        </mxCell>
        <mxCell id="p87asnX_9dNi2kme-AvX-16" style="edgeStyle=orthogonalEdgeStyle;orthogonalLoop=1;jettySize=auto;html=1;shadow=0;fillColor=#60a917;strokeColor=#808080;strokeWidth=1;rounded=1;fontFamily=Helvetica;" edge="1" parent="1" source="p87asnX_9dNi2kme-AvX-13">
          <mxGeometry relative="1" as="geometry">
            <mxPoint x="-720" y="320" as="targetPoint" />
          </mxGeometry>
        </mxCell>
        <mxCell id="p87asnX_9dNi2kme-AvX-13" value="&lt;font&gt;Avatar backstory&lt;/font&gt;" style="rounded=1;whiteSpace=wrap;html=1;fillColor=#b0e3e6;strokeColor=#0e8088;shadow=0;fontFamily=Helvetica;" vertex="1" parent="1">
          <mxGeometry x="-970" y="290" width="120" height="60" as="geometry" />
        </mxCell>
        <mxCell id="p87asnX_9dNi2kme-AvX-17" style="edgeStyle=orthogonalEdgeStyle;orthogonalLoop=1;jettySize=auto;html=1;entryX=0;entryY=0.5;entryDx=0;entryDy=0;shadow=0;fillColor=#60a917;strokeColor=#808080;strokeWidth=1;rounded=1;fontFamily=Helvetica;" edge="1" parent="1" source="p87asnX_9dNi2kme-AvX-14" target="p87asnX_9dNi2kme-AvX-10">
          <mxGeometry relative="1" as="geometry" />
        </mxCell>
        <mxCell id="p87asnX_9dNi2kme-AvX-14" value="&lt;font&gt;Avatar knowledge base&lt;/font&gt;" style="rounded=1;whiteSpace=wrap;html=1;fillColor=#b0e3e6;strokeColor=#0e8088;shadow=0;fontFamily=Helvetica;" vertex="1" parent="1">
          <mxGeometry x="-970" y="400" width="120" height="60" as="geometry" />
        </mxCell>
        <mxCell id="p87asnX_9dNi2kme-AvX-41" style="edgeStyle=orthogonalEdgeStyle;orthogonalLoop=1;jettySize=auto;html=1;entryX=0.5;entryY=0;entryDx=0;entryDy=0;fillColor=#60a917;strokeColor=#808080;strokeWidth=1;rounded=1;fontFamily=Helvetica;" edge="1" parent="1" source="p87asnX_9dNi2kme-AvX-19" target="p87asnX_9dNi2kme-AvX-40">
          <mxGeometry relative="1" as="geometry" />
        </mxCell>
        <mxCell id="p87asnX_9dNi2kme-AvX-19" value="&lt;font&gt;Open AI GPTs&lt;br&gt;(LangChain)&lt;br&gt;&lt;/font&gt;" style="rounded=1;whiteSpace=wrap;html=1;fillColor=#d0cee2;strokeColor=#56517e;shadow=0;fontFamily=Helvetica;" vertex="1" parent="1">
          <mxGeometry x="-720" y="400" width="120" height="60" as="geometry" />
        </mxCell>
        <mxCell id="p87asnX_9dNi2kme-AvX-24" value="" style="shape=image;verticalLabelPosition=bottom;labelBackgroundColor=default;verticalAlign=top;aspect=fixed;imageAspect=0;image=data:image/svg+xml,PHN2ZyB4bWxucz0iaHR0cDovL3d3dy53My5vcmcvMjAwMC9zdmciIGlkPSJzdmczOSIgeG1sOnNwYWNlPSJwcmVzZXJ2ZSIgdmlld0JveD0iMCAwIDI0MCAyMjkiIHZlcnNpb249IjEuMSI+PGRlZnMgaWQ9ImRlZnMzOSIvPjxwYXRoIGlkPSJwYXRoMSIgZmlsbD0iIzBhMGYxMSIgZD0ibTE0Mi4xIDI3LjAzYzcuOTggNS4zMSAxNC4xMyAxMy4wNSAxNi44NyAyMi40MnEwLjE1IDAuNTIgMC43IDAuNDkgNC0wLjI5IDcuMDggMi4wNyAyLjAzIDIuMjIgMi40OSA1LjEzYTAuNzcgMC43NiA4NS4xIDAgMCAwLjc1IDAuNjRsNy4yMiAwLjAyYTAuNjUgMC42NSAwIDAgMSAwLjY1IDAuNjZsLTAuMDUgNC4xM2EwLjY1IDAuNjUgMCAwIDEtMC42NSAwLjY1bC03LjY4IDAuMDFxLTAuNSAwLTAuNSAwLjUgMC4wMSA3Ljc1IDAuMDggMTUuNTFjMC4wNyA4LjExLTUuNjEgOS4wMi0xMS45OCA4Ljc4cS0wLjY4LTAuMDMtMC44IDAuNjNsLTMuMzUgMTguNDlxLTAuMTIgMC42MyAwLjE2IDEuMjFsNi41NyAxMy41M2ExLjA1IDEuMDQgNTkuMiAwIDEtMC4zMiAxLjNsLTMuNTMgMi41NmEwLjMgMC4yOSA0OS42IDAgMC0wLjAzIDAuNDVxNi4xIDYuMjQgMTQuMjggOC40YzMuNDQgMC45MiA4LjkzIDIuMTEgMTEuOTUgMS4xNCA3LjQzLTIuNDEgMTAuNjItMTEuOTIgMTAuNi0xOS4wMS0wLjAxLTMuMTQtMS4wNC02LjU2LTEuNzYtOS44cS0wLjg4LTMuOTYgMC44Mi0xMC40OCAyLjItOC40MiA4LjM2LTEyLjY2YzcuMzktNS4xIDIwLjIyLTIuNjcgMjMuODIgNi4xMSAyLjU5IDYuMzIgMC4wMSAxMy44OC02LjY1IDE2LjIycS0yLjUzIDAuODktNC41NyAwLjIyLTIuNzUtMC45MSAwLjE0LTEuMDRjNC4wOS0wLjE5IDcuODgtNC4wOCA3Ljc1LTguMjEtMC4xMy00LjMzLTUuMDYtNy4zOS04Ljk5LTYuNTItMTAuMTEgMi4yNC01LjcgMTUuMDUtMy44MyAyMS4xN3ExLjc4IDUuODIgMC44MyAxNC45OGMtMS45NCAxMy4wMi05LjY5IDI0LjkxLTIyLjYzIDI5LjJxLTAuNTEgMC4xNi0wLjQ2IDAuNjkgMC40MyA0LjYtMC45MyA4Ljk2LTAuMTMgMC40NCAwLjMgMC41OGMxMi43OSA0LjM1IDMyLjY4IDMuNTIgMzguOTgtMTAuNTUgMS41NC0zLjQ1IDEuNzEtOC4zNi0xLjE4LTExLjIyLTUuMDItNC45Ny0xMy40OS0yLjIxLTEzLjk0IDUtMC4zIDQuNyAzLjAzIDkuNTQgOC4yNyA3Ljk2cTAuNDMtMC4xMyAwLjY4IDAuMjQgMC40NiAwLjY4LTAuMjEgMS4xMS00LjYyIDIuOTgtOS4yOS0wLjU4Yy02LjUyLTQuOTYtNi4yNC0xNi40NSAwLjM4LTIwLjkycTUuNS0zLjcyIDguMjMtNC4wMSAxMy4yNC0xLjQzIDE5LjE1IDguOTRjNS4wNCA4Ljg1IDMuNCAxOC42OS0yLjMxIDI2LjcyLTEwLjE1IDE0LjI3LTI3LjQ1IDE5LjA2LTQ0LjE4IDE2LjE1cS02LjkyLTEuMi0xMy40Ny0zLjAzYTEuNTcgMS41NyAwIDAgMC0xLjQyIDAuM2MtMjAuMDMgMTYuMzgtMzUuNTItMy4zMy00MS4xMi0yMS4wNGEwLjQ4IDAuNDggMCAwIDAtMC44My0wLjE3bC00LjQgNS4xNWMtMC41OC0yLjM3IDEuMzYtNS4xNiAzLjY3LTYuMWEwLjc5IDAuNzggNzguNSAwIDAgMC41LTAuNzZsLTAuMjEtNS40MyAxLjM0IDMuODZxMC4xOSAwLjUzIDAuNjcgMC4yNSAxMi44My03LjQ4IDIyLjQ0LTE0LjcyIDItMS41MSAzLjAyLTQuMzMgMC4xOS0wLjUxLTAuMDQtMWwtNC42Ny0xMC4yOGEwLjg4IDAuODggMCAwIDAtMS4zLTAuMzZsLTE1Ljk4IDEwLjgzYTAuNjcgMC42NyAwIDAgMS0wLjk1LTAuMTlsLTUuNTItOC42OWEwLjc0IDAuNzMgNTAuNiAwIDAtMS4xNi0wLjEybC00LjIzIDQuNDlxLTEuMDEgMC40NSAwLjI2LTEuMjcgMS4xNi0xLjU4IDIuNDYtMy4wOCAwLjMxLTAuMzYgMC43NS0wLjUyIDEuMDQtMC40IDAuOTQtMS40LTAuMDYtMC41OC0wLjc1LTEuNDUtMS45OS0yLjQ4LTMuMzMtNS41N2ExLjYgMS41OSA3MS44IDAgMC0xLjgtMC45MXEtMy44OSAwLjg1LTcuNzkgMC4yMS0xLjAzLTAuMTYtMS41OSAwLjcxbC00LjM2IDYuNzdxLTAuMTggMC4yNyAwLjAzIDAuNTFsNC40OCA1LjIxYTIuNDIgMi40MiAwIDAgMSAwLjM2IDIuNTlxLTAuNyAxLjU1LTEuNCAzLjI1LTAuNDYgMS4xNC0wLjY4IDMuMmMtMC4yNiAyLjQ2LTEuNjMgNC42Ni0yLjExIDYuODJxLTAuNDggMi4xNC0xLjA0IDQuMjgtMC4wMyAwLjEzLTAuMTIgMC4yMnQtMC4yMiAwLjE5cS0wLjI5IDAuMjMtMC4zMiAwLjYxLTAuMTYgMi43MS0xLjMzIDUuMTItMC4yIDAuNCAwLjEyIDAuNzIgMy4xNiAzLjA5IDQuMzIgNC4zNiAwLjI3IDAuMjkgMC4yNyAwLjg5IDAgMCAwLjA0LTAuMDMgMC4wNy0wLjA4IDAuMTgtMC4xOCAwLjA0LTAuMDQgMC4wNyAwbDYuMzYgNy44N3EwLjMzIDAuNDEtMC4wNyAwLjc0LTAuMjEgMC4xNy0wLjUxIDAuMDdsLTEwLjQ5LTEyLjA5YTAuNiAwLjYgMCAwIDAtMS4wMiAwLjJjLTUuODEgMTcuMjItMjIuMDEgMzcuNDYtNDEuNTQgMjAuMjhxLTAuNC0wLjM2LTAuOTEtMC4xOGMtMTkuOTEgNy4wMS00Ni4wNCA1LjY0LTU4LjYxLTEzLjcyLTQuNDQtNi44NS01Ljg1LTE0Ljk2LTMuMy0yMi41OSAzLjI4LTkuODEgMTMuMDQtMTQuNTkgMjIuNzEtMTEuNzJxNS42NyAxLjY4IDkuMTcgNi4yOGM0Ljg3IDYuNDIgMy40OSAxNi41Ny00LjcgMTkuNDhxLTQuNCAxLjU2LTcuNDktMS43Ny0wLjUxLTAuNTUgMC4yMi0wLjM4YzkuOTUgMi4zMiAxMi43OS0xMC42NSA1LjAzLTE0LjYtMy41OS0xLjgzLTguOC0wLjgyLTEwLjY3IDIuODUtMy4zNiA2LjYxIDEuMTcgMTQuMTggNi43MSAxNy44MyA5LjUxIDYuMjkgMjEuNDQgNi4xOSAzMS45OCAyLjhhMC40MiAwLjQxIDczLjEgMCAwIDAuMjctMC41MnEtMS4yNi00LjMyLTAuODMtOC43OSAwLjA3LTAuNjYtMC41NS0wLjkyLTE4Ljk2LTcuOTctMjIuMjUtMjguNTktMC40NS0yLjc3LTAuNy01Ljc4IDAuNDMtNy42NSAyLjY5LTE1LjEyYzEuMTUtMy43OSAxLjc1LTcuMjQgMC42NS0xMC41NC0yLjQ0LTcuMjgtMTMuMzgtNy41MS0xNS4xMiAwLjMzLTEuMDkgNC45NSA0LjU4IDguODkgOC43IDkuNjJxMC4yNSAwLjA1IDAuMyAwLjMgMC4wMyAwLjE0IDAuMDYgMC4yOGEwLjI1IDAuMjQgODMuMSAwIDEtMC4yMyAwLjNjLTE0LjY3IDAuOC0xNy44NC0xNy42NS01LjI3LTIzLjgycTcuNzQtMy44IDE1LjU1LTAuMDFjOC45OCA0LjM3IDExLjY4IDE0LjQ0IDEwLjgzIDIzLjc0LTAuMyAzLjM2LTEuODQgNy4xOC0xLjY5IDEwLjc0IDAuMjUgNS43NSAyLjcxIDE0LjA3IDcuOTQgMTcuMTIgNy42NSA0LjQ2IDIzLjAxLTEuOTggMjguNjEtNy44NmEwLjU3IDAuNTcgMCAwIDAtMC4xLTAuODdsLTMuOTEtMi41OHEtMC41OC0wLjM4LTAuMy0xLjAxIDIuNy02LjA0IDUuNDgtMTEuNjUgMC45Ni0xLjk1IDAuODEtMy45NGMtMC40NS01Ljk1LTEuOTEtMTIuMDQtMi45OS0xNy45M3EtMC4wOS0wLjUtMC42LTAuNDljLTcuOTUgMC4xOC0xMS4wNS0yLjYtMTEuMDEtMTAuNjRxMC4wMy02Ljc5LTAuMDEtMTMuNzNhMC43MyAwLjczIDAgMCAwLTAuNzEtMC43MmwtNy45Mi0wLjIxIDAuMDUtNC41NHEwLjAxLTAuNjcgMC42OC0wLjY2bDYuODEgMC4xM2EwLjkxIDAuOS04My45IDAgMCAwLjktMC43M3ExLjQtNy4xMSA4LjczLTcuMjQgMC41Ni0wLjAxIDAuNzctMC41MmMyLjYzLTYuMTkgNC43Ny0xMS4zIDEwLjA5LTE2Ljc5IDEzLjY4LTEzLjQ4IDM0LjA4LTE1Ljg5IDUwLjMzLTUuNTl6bS00Ni45NiAxMC43MnExLjE3IDAgMC43NCAxLjA4bC00LjE1IDEwLjM0cS0wLjM2IDAuODggMC41OSAwLjg1YzQuOTQtMC4xOCAxOS4wNi0xLjQxIDIyLjM5IDIuMjcgMS44OSAyLjA5IDIuOTQgOC41MyA3LjMxIDUuNzMgMS43NC0xLjExIDEuNzctMy43NCAzLjE1LTUuMjFxMi43LTIuODggNy42OC0yLjkxIDExLjgyLTAuMDcgMjIuOTIgMC4wMiAxLjM5IDAuMDIgMC45LTEuMjljLTEzLjAyLTM0LjgtNjAuNTUtMzQuNy03Mi4yNyAwLjkycS0wLjI2IDAuOCAwLjU2IDAuNjVsMC4yNi0wLjA0cTAuNTktMC4xIDAuODItMC42NWw0LjI2LTEwLjAycTAuNzQtMS43NCAyLjYyLTEuNzRoMi4yMnptLTEyLjM4IDE1Ljg4Yy0yLjY3IDEwLjg5LTAuMjUgMTkuOTEgMi42MiAzMC4yNHEwLjE0IDAuNDkgMC42NCAwLjQ5IDEwLjg0LTAuMDYgMjEuNzMgMC4xNCA1LjkyIDAuMSA1LjkyLTUuMTEgMC05LjcxIDAuODItMjAuOTIgMC4wOS0xLjE2LTEuMDYtMS0wLjI5IDAuMDMtMC43OS0wLjg3Yy0yLjM3LTQuMzItMTEuOTQtMy4yLTE2LTIuNzlxLTcuNDQtMS42Ny0xMy44OC0wLjE4em00NC4yMiA4LjE4LTAuMTkgMTAuOWMtMC40NCA1Ljc1LTEuMzQgMTEuNzMgNS45NiAxMS42OXExMC43Mi0wLjA2IDIxLjQyIDAuMDUgMC40NyAwIDAuNTktMC40NWMyLjctMTAuNTEgNS4zMy0yMC4yNyAyLjQ2LTI5Ljk4cS0wLjEtMC4zNC0wLjQ2LTAuMzUtMTIuNjQtMC4xNC0yNS4yNi0wLjA4Yy00LjI4IDAuMDItNS4zOCA0LjkxLTQuNTIgOC4yMnptMzMuMDYtNi45N3EwLjk3IDguMTQgMC41OCAxMS4xMy0xLjE1IDkuMDYtMy4wNCAxNi4zNi0wLjY4IDIuNjQgMS45OCAyLjA4bDIuOTktMC42M2EzLjQ0IDMuNDMtNS45IDAgMCAyLjc0LTMuMzZsMC4wMi0yMS4zNnEwLjAxLTIuMzYtMS44OS0zLjc3bC0xLjgzLTEuMzVxLTEuODEtMS4zNS0xLjU1IDAuOXptLTc4LjY4IDI5LjQ0cTEuNjcgMC4xNyAxLjI3LTEuNDVjLTIuNDgtMTAuMDEtNC4yLTE4LjEtMi4zNS0yOC4zM2EwLjc3IDAuNzcgMCAwIDAtMS4xMS0wLjgyYy0yLjUxIDEuMy0zLjIgMy4yMS0zLjIyIDYuMTFxLTAuMDUgOS45NyAwLjA1IDE5Ljk2IDAuMDEgMC44NyAwLjcyIDIuNTFhMyAzIDAgMCAwIDIuNDQgMS43OGwyLjIgMC4yNHptNjkuMzQgMjQuNTRjMC41OC01LjI3IDEuMzItMTEuMjMgMy41LTIwLjQ4cTAuMTMtMC41Mi0wLjQxLTAuNTEtOS45NSAwLjIxLTE5Ljk0IDAuMTZjLTYuMi0wLjA0LTEwLjE1LTEuNjktMTAuNjYtOC4yNnEtMC4yNS0zLjI5IDAuMDYtMTQuODFhMi4zOSAyLjM5IDAgMCAwLTIuMzMtMi40NWwtMC44Ni0wLjAycS0zLTAuMDgtMi45NSAyLjkyYzAuMDkgNS4zNSAxLjA2IDE0LjkxLTEuNDIgMTkuMXEtMi4yNiAzLjgyLTcuMjEgMy43OS0xMC44MS0wLjA4LTIxLjc1LTAuMDEtMC40OCAwLjAxLTAuNCAwLjQ4bDMuNDggMjAuMDFxMC4xMiAwLjczIDAuODEgMSAxMS4zOCA0LjUgMjMuNDEgNy4wOWMxMS4xIDIuMzkgMjUuNjgtMy4yOSAzNi4wNy03LjI0YTAuOTUgMC45NCA4My40IDAgMCAwLjYtMC43N3ptLTExMy41NyAyNC41OHEwLjEtMC4yMSAwLjEzLTAuNDcgMC4wNS0wLjQ5IDAuNDMtMC44MWM0LjIxLTMuNSA5LjEgMi4wOSA0Ljc5IDUuMTlhMi40NyAyLjQ3IDAgMCAxLTMuMjEtMC4yOWwtMS4wMi0xLjA2cS0wLjYzLTAuNjYtMC4zMyAwLjJjMC45NyAyLjcyIDQuMzggNi4yMyA2LjEgOC43NCAyLjM5IDMuNDggNy40MyA1LjA5IDExLjE0IDYuNmEwLjY1IDAuNjQtNzAuMiAwIDAgMC44Ni0wLjQxcTIuODctOS4wNSAxMS4xMy0xMi4yOGMyLjgyLTEuMSA2LjUtMS4yMSA5LjctMS42NHEwLjU3LTAuMDcgMC41NS0wLjY1bC0wLjAzLTEuMzZhMC4zNSAwLjM0IDc5LjcgMCAwLTAuNDYtMC4zMmMtNi40NiAyLjMyLTEzLjUgNC4wMy0xOS4wOCAyLjMzLTcuNC0yLjI2LTEwLjgxLTEyLjc3LTExLjEyLTE5LjY2cS0wLjA5LTIuMDEgMC45NC02Ljc0YzIuMDEtOS4yNyAwLjc3LTE5LjktNy45Ni0yNS40NC0yLjc5LTEuNzgtOC40LTMuNjYtMTEuMTItMC41N3EtMC4zNCAwLjM4LTAuMTUgMC44NSAxLjE5IDMuMDQgNC4yOSAzLjlhMC42NSAwLjY0LTY5IDAgMCAwLjc1LTAuMzRjMi4yNi00LjYxIDguMiAwLjE0IDMuMSAzLjQzcS0wLjM2IDAuMjMtMC4yMyAwLjYzbDEuNjcgNC45N3EwLjEgMC4zMSAwLjI5IDAuMDVjMi4xNi0zLjEgNi44MS0yLjE5IDUuODEgMS42MS0wLjg3IDMuMzEtMy4zIDMuMTMtNS41OSAxLjQ1YTAuMzIgMC4zMSAyNC42IDAgMC0wLjQ5IDAuMThsLTEuNDkgNi4wM3EtMC4xMyAwLjU0IDAuMzYgMC4yNyAyLjIyLTEuMjIgNC4yNCAwLjMxYzMuMiAyLjQyLTIuOTggOC45MS00LjkgMy4zOXEtMC4yNS0wLjcyLTAuNDMgMC4wMi0yLjY4IDExLjExIDAuOTQgMjEuODcgMC4xNiAwLjUgMC4zOSAwLjAyem0xNTIuODYgMTYuNDdjNi4wMi0yLjQ1IDguOTktNy43NSAxMi42Mi0xMi43N3EwLjI4LTAuMzkgMC4zOS0wLjg3IDAuMTgtMC43NiAwLjY0LTEuOTdjMi40MS02LjMzIDMuNjUtMTQuOTcgMS43NC0yMS43N3EtMC4xMy0wLjQ1LTAuNDgtMC4xNGMtMi42MiAyLjI5LTYuOTctMC4yMS01LjYtMy40MXExLjIzLTIuODcgNC43LTEuMjZhMC4zNiAwLjM1LTg0LjcgMCAwIDAuNDktMC40MWwtMS40MS01Ljc4cS0wLjEyLTAuNDgtMC40OC0wLjE0Yy0zLjQgMy4yNi04LjA3LTAuOTItNS4xOC00LjE3IDEuOTUtMi4yIDMuMTgtMC40MSA1LjIzIDAuMzZxMC40MiAwLjE2IDAuNTgtMC4yN2wxLjYyLTQuMzlxMC4yMS0wLjU0LTAuMzYtMC42Ny0xLjUtMC4zNi0yLjIyLTEuNTVhMiAxLjk5IDYwLjcgMCAxIDAuNzgtMi43OXEzLjI4LTEuNzMgNC40MiAxLjQ1IDAuMTggMC41MiAwLjY5IDAuMzFsMi4zNi0wLjk4YTAuODQgMC44My0xMi4xIDAgMCAwLjUxLTAuNzhxLTAuMDUtMi4wOCAxLjA2LTMuNzZhMC40IDAuNCAwIDAgMC0wLjI4LTAuNjFjLTEzLjMxLTEuNzMtMTkuNTYgOS4yOC0xOS4zIDIwLjg3cTAuMDMgMS4zMyAxLjIzIDcuNTEgMi4xNSAxMS4xLTQuMzQgMjAuNDhjLTUuNyA4LjIyLTE0LjM4IDUuMjUtMjIuMTYgMi45N2EwLjM1IDAuMzUgMCAwIDAtMC4zNiAwLjU2cTAuOTkgMS4xMiAxLjIzIDIuNTQgMC4wOCAwLjQyIDAuNDUgMC4yMmM3LjU2LTMuOTcgMTQuMTcgNy4xMiAxNi4zNCAxMi43MXEwLjIgMC41MiAwLjc1IDAuNDNjMS41OS0wLjI1IDMuMzYtMS41MiA0LjM0LTEuOTJ6bTMyLjYxLTU3LjY5cS0yLjUxLTQuNjMtNi44My03LjYxYTAuNjggMC42OCAwIDAgMC0xLjA0IDAuMzdsLTAuNjggMi4zNXEtMC4yNSAwLjg4IDAuNjQgMS4xMWMzLjc1IDAuOTcgNC45MyAxLjcyIDYuNjIgNS4yNmEwLjUzIDAuNTMgMCAwIDAgMC44OCAwLjExbDAuMjgtMC4zMmExLjExIDEuMTEgMCAwIDAgMC4xMy0xLjI3em0tMjAzLjMzIDAuMjlxMS4wNC0xLjEzIDEuOTMtMi40MSAwLjMtMC40MyAwLjc4LTAuNjRsMi44LTEuMjFxMS4xMy0wLjQ5IDEuMTYtMS43M2wwLjA0LTEuMTlxMC4wMy0xLjE0LTAuOTctMC41Ny00LjgxIDIuNzctNi43IDguMDEtMC4zNyAxLjAyIDAuNTUgMC40OSAwLjEtMC4wNSAwLjItMC4zOSAwLjA3LTAuMjEgMC4yMS0wLjM2em0xMzguNjkgMzAuNGEwLjMgMC4zIDAgMCAwIDAuMS0wLjM4bC01LjUyLTExLjMyYTAuMyAwLjMgMCAwIDAtMC4zNi0wLjE1bC0yNS41MSA4LjA5YTAuMyAwLjMgMCAwIDAtMC4xNyAwLjQ1bDEwLjY2IDE3LjE3YTAuMyAwLjMgMCAwIDAgMC40MyAwLjA5bDIwLjM3LTEzLjk1em0tNjkuNzQtMTEuNzZhMC4zMiAwLjMyIDAgMCAwLTAuMzggMC4xNmwtNS41MiAxMS4wMWEwLjMyIDAuMzIgMCAwIDAgMC4xIDAuNDFsMTkuODYgMTQuMTFhMC4zMiAwLjMyIDAgMCAwIDAuNDUtMC4wOWwxMS4zLTE3LjI2YTAuMzIgMC4zMiAwIDAgMC0wLjE4LTAuNDhsLTI1LjYzLTcuODZ6bTE0LjAxIDI2Ljk0LTE0LjM0LTkuOThhMC42IDAuNTktNjAgMCAwLTAuODggMC4yNGwtNC40IDkuNjVxLTAuMjEgMC40NSAwLjExIDAuODNjMi4wMyAyLjM3IDEuNjUgNC44MiA0LjMgNi43MXE5LjU2IDYuODMgMTkuNzggMTIuNzcgMC41IDAuMjggMC42Ny0wLjI3bDYuODctMjIuOTRhMi4zMyAyLjMzIDAgMCAwLTAuNTUtMi4yOGwtMy43MS0zLjg3YTAuNjkgMC42OC01MC43IDAgMC0xLjA3IDAuMTFsLTUuNjMgOC44YTAuODIgMC44MSAzMy40IDAgMS0xLjE1IDAuMjN6bS0yMC44NS0xLjE5IDIuNTUtNC44NHExLjI3LTIuNDItMS4wMS0wLjkybC00LjY1IDMuMDdxLTAuNTUgMC4zNiAwLjA3IDAuNTcgMS42MSAwLjUzIDIuMjcgMi4wOSAwLjM1IDAuODMgMC43NyAwLjAzem04MC4wMiAwLjcxYTAuNDkgMC40OSAwIDAgMCAwLjc3IDAuMTNsMi40LTIuMzFhMC40OSAwLjQ5IDAgMCAwLTAuMS0wLjc4bC01LjE2LTIuOTdhMC40OSAwLjQ5IDAgMCAwLTAuNjggMC42NmwyLjc3IDUuMjd6bTU2Ljk3LTEuMjNxMC41Ni0wLjA5IDAuODktMC41OWEwLjM5IDAuMzkgMCAwIDAtMC4zMS0wLjZsLTAuOTQtMC4wM3EtMC44NS0wLjAzLTAuNTMgMC43NiAwLjIyIDAuNTYgMC44OSAwLjQ2em0tMzAuNjkgNDQuM2MwLjYtNi43NSA4Ljk3LTQuOTcgNy4zNSAxLjQ5cS0wLjEzIDAuNTEgMC4zOSAwLjUxbDQuNTYgMC4wM3EwLjYxIDAuMDEgMC4xNS0wLjRjLTUuNS00LjkyIDguMi0xMC4yNiA1Ljg2LTAuNThxLTAuMDcgMC4zMyAwLjI0IDAuMjNsNS43OC0xLjcyYTAuMjUgMC4yNSAwIDAgMCAwLjE0LTAuMzdxLTIuNzgtNC4yOCAxLjc2LTYuMTUgMC41Mi0wLjIxIDEuMDQgMC4wMSAyLjcyIDEuMTUgMi43NiA0LjEzYTAuNDQgMC40MyA3Mi42IDAgMCAwLjY4IDAuMzZsNS0zLjQ2YTAuNDQgMC40NCAwIDAgMC0wLjA2LTAuNzZxLTEuOS0wLjg5LTIuNTQtMi44Ny0wLjE2LTAuNTEgMC4wOS0wLjk5IDEuMDEtMS44NCAyLjgxLTIuOTJhMS4wNSAxLjA0IDM4LjIgMCAxIDAuODctMC4xcTIuMzIgMC43MyAzLjIgMy4wMSAwLjI3IDAuNyAwLjc1IDAuMTNsNC40Ni01LjI3cTAuNy0wLjgzLTAuMzMtMC41Yy02LjgyIDIuMTktNC4zMS0xMS45MyAxLjczLTUuMDNxMC42MiAwLjcyIDAuNzktMC4yMmwwLjkxLTUuMDlxMC4xMy0wLjctMC41OC0wLjg0Yy0yLjQyLTAuNDctNi4wMS0wLjEtNS40NS0zLjcyIDAuMzMtMi4xMyAyLjM3LTIuODggNC4yNS0zLjI0cTAuNTEtMC4xIDAuMzgtMC42MS0wLjY3LTIuNjEtMi40Mi00LjYtMC4zOS0wLjQ1LTAuNjkgMC4wNmMtMi40OSA0LjE0LTguMDEgMC4wOC00Ljk1LTMuNzlxMC42Ni0wLjgzLTAuMzUtMS4xNmwtMi45NC0wLjk3YTEuMTYgMS4xNiAwIDAgMC0xLjM5IDAuNTVjLTEuMyAyLjQ0LTQuNzMgNC4yOS01Ljg3IDAuNTRxLTAuMTMtMC40NS0wLjYtMC40LTIuOSAwLjMxLTQuODQgMi40NWEwLjk1IDAuOTQtMzEuNiAwIDAtMC4yMSAwLjg3cTAuMjYgMC45NyAwLjE5IDEuOTctMC4wNCAwLjYgMC41MyAwLjM3YzQuNjItMS44NCA5Ljc0LTIuMzkgMTMuMDkgMS42MiA0LjM5IDUuMjcgMi4yIDEzLjkyLTIuMTYgMTguNjEtOC45NCA5LjY0LTI1LjEzIDEwLjUyLTM2Ljk3IDYuNDZxLTAuOTktMC4zNC0xLjQgMC42M2wtMS44NyA0LjQxcS0wLjM4IDAuODggMC41IDEuMjcgMS40IDAuNjEgMi40MiAxLjgxIDAuMzggMC40NSAwLjEgMC45N2wtMS40OSAyLjczYTAuNSAwLjQ5LTYzLjIgMCAwIDAuMjIgMC42OXExLjQxIDAuNjUgMi45NSAwLjZhMi41OCAyLjU1IDU1LjYgMCAxIDEuMDQgMC4ycTEuMTUgMC40OSAyLjI5IDAuOTYgMC4xMiAwLjA1IDAuMTctMC4wNyAwLjAzLTAuMDgtMC4wMi0wLjExbC0xLjk0LTEuMDJxLTAuNDItMC4yMy0wLjM4LTAuNzF6bS0xODEuNDUtMjAuMDhjMS4zOC03LjA1IDkuNDktMC4zMSA0Ljc4IDMuNDhxLTEuMjcgMS4wMi0yLjgyIDAuNDQtMC43Ni0wLjI4LTAuMjkgMC4zOGwzLjU5IDUuMDlhMC44MiAwLjgyIDAgMCAwIDEuMzctMC4wNGMxLjIxLTEuOTUgMi40LTMuOTUgNC45NC0xLjk2IDIuMzMgMS44MyAzLjMyIDUuMjItMC4yIDYuNDNhMC41NiAwLjU2IDAgMCAwLTAuMTEgMS4wMWw0LjYzIDIuNzVxMC41MiAwLjMxIDAuNjMtMC4yOGMxLjQzLTcuNTEgMTAuMDItMy4yMyA1Ljg2IDEuOTJhMC4yNiAwLjI2IDAgMCAwIDAuMTMgMC40MWw2Ljc4IDEuOTFxMC44NyAwLjI0IDAuMjQtMC40MS0xLjY5LTEuNzUtMC42Ni00LjAyYTEuMzggMS4zNiAwLjQgMCAxIDAuNzItMC43cTMuMi0xLjI5IDUuNzIgMS4wNGEwLjkyIDAuOTEgMjMuMyAwIDEgMC4zIDAuNzRxLTAuMTEgMS42NC0xLjM5IDIuNjMtMS4xIDAuODYgMC4zIDAuODhsNiAwLjA5cTAuNDggMCAwLjIyLTAuNDFjLTMuOTEtNi4xNCA2LjY4LTguMzkgNi4wOS0wLjg0YTAuNjcgMC42NiA4Ni40IDAgMCAwLjc5IDAuN2w0Ljg5LTAuOTVhMC40NSAwLjQ1IDAgMCAwIDAuMDktMC44NWMtMy4zNi0xLjQyLTIuNTUtNC4yNS0wLjAxLTUuODhxMC40OC0wLjMyIDAuMjYtMC44NWwtMS42LTMuODZhMS43NyAxLjc2IDY5LjYgMCAwLTIuMTgtMWMtMTMuNjMgNC40Mi0zNS44NiAyLjQzLTQwLjM4LTE0Ljc0LTIuMjUtOC41NCA0LjA3LTE1LjY4IDEyLjg5LTEzLjE5cTIuMDEgMC41NyAyLjQyLTEuNTVhMS4yMiAxLjItNzEuOCAwIDAtMC42NS0xLjMxbC00LjI5LTIuMXEtMC42MS0wLjI5LTAuNyAwLjM4LTAuMyAyLjQyLTIuNTMgMy4xNGEwLjk5IDAuOTkgMCAwIDEtMS4wMS0wLjI3cS0xLjA5LTEuMi0xLjQ2LTIuNzctMC4xMS0wLjQ4LTAuNi0wLjUzLTMuNDUtMC4zMy02LjI0IDEuNy0wLjIyIDAuMTUgMC4wMyAwLjI0IDIuNDIgMC44NyAyLjQgMy40M2EwLjkxIDAuOS0xNy4xIDAgMS0wLjQgMC43NXEtMy4zMyAyLjI4LTUuMzktMC44LTAuMy0wLjQ1LTAuNjMtMC4wMi0yLjY2IDMuNDYtMi44MiA0Ljc0LTAuMjQgMS45Ni0xLjA5IDMuNzMtMS4wNSAyLjE5IDAuOTQgMC43OSAwLjQ2LTAuMzIgMC4zMS0yLjE3LTAuMTQtMS43MiAxLjUxLTEuMjZsMS4yNSAwLjM1cTEuODYgMC41MiAxLjY1IDIuNDMtMC41NiA0Ljk5LTUuNTcgMy44OGEwLjUgMC41IDAgMCAwLTAuNiAwLjU5bDEuNjIgNy4ycTAuMSAwLjQ3IDAuMzYgMC4wNiAwLjE0LTAuMjItMC4wMi0wLjM1LTAuMS0wLjA4LTAuMDctMC4yem02NC40Ny0xNy4xcS0xLjQ2IDAuOTYtMi4zNyAyLjQyLTAuOSAxLjQzLTIuNC0wLjAyYTEuMTEgMS4xMSAwIDAgMSAwLjIzLTEuNzZxMC42NS0wLjM3IDAuNDgtMS4wOWEwLjQ0IDAuNDQgMCAwIDAtMC42OC0wLjI3cS0yLjI1IDEuNDgtNC4zNCAzLjEyLTAuMjEgMC4xNi0wLjI5IDAuMzktMC4xOSAwLjUxIDAuMzQgMC4zNmM3LjA0LTEuOTUgNC40OSAxMC4wNC0xLjUzIDUuMjNxLTAuNDQtMC4zNC0wLjY2IDAuMTYtMC43IDEuNTUtMC43OSAzLjI1YTAuMzMgMC4zMyAwIDAgMCAwLjU2IDAuMjVsMC4yNi0wLjI2YTAuNjggMC42NyA0MCAwIDEgMC44Ny0wLjA3YzEuMzEgMC45MiA0IDIuNDUgNC4xNSA0LjA5IDAuMiAyLjEyLTEuOTMgMi41MS0zLjQ2IDMuMTFxLTAuNjEgMC4yNC0wLjQ2IDAuODhsMC40NiAxLjk2cTAuMTYgMC43MiAwLjkxIDAuNzRjNS43NSAwLjE0IDUuNjcgNC40MSAyLjIxIDcuMzRxLTAuNDYgMC4zOC0wLjEyIDAuODhsMS43IDIuNXEwLjM0IDAuNSAwLjc1IDAuMDUgMy44NC00LjIyIDYuNTgtMC4wNyAxLjA2IDEuNjEgMC4xNSAzLjM5YTEuNTUgMS41NCAzNy41IDAgMS0yLjUzIDAuMzNxLTAuODYtMC45Ni0yLjEyLTEuMTQtMC4xLTAuMDItMC4xMSAwLjAxbC0wLjE3IDAuM3EtMC4wNiAwLjEyIDAuMDYgMC4ybDguMzkgNS4xOWEwLjUzIDAuNTMgMCAwIDAgMC43NS0wLjY5cS0wLjcxLTEuNC0wLjA3LTIuNzRhMS4yNCAxLjIzLTgzLjMgMCAxIDAuODQtMC42N2MyLjc2LTAuNjIgMy44MiAyLjQ4IDMuOTcgNC41NGEwLjggMC44IDAgMCAwIDAuOTMgMC43NGMxMi4xOS0xLjg4IDE5LjQyLTE1LjI1IDIyLjc3LTI1LjcyYTAuNjkgMC42OCAyNC40IDAgMC0wLjMtMC43OWwtMTIuMzQtNy41MXEtMS4xNS0wLjY5LTEuODEgMC40N2wtMy4zIDUuNzFhMC40NSAwLjQ1IDAgMCAwIDAuNTcgMC42NGMzLjg2LTEuNjUgNC4xOSA1LjUzLTAuODcgNS42MnEtMS4yMyAwLjAyLTAuOTgtMS4xOCAwLjA2LTAuMy0wLjAzLTAuNTktMC4xNC0wLjQ0LTAuMzMtMC4wMmMtMS4wNyAyLjMyLTMuMzIgMy44Mi00LjU5IDYuMThxLTAuMTggMC4zMy0wLjE1IDAuNjIgMC4wMiAwLjM1IDAuMTYgMC41NSAwLjMyIDAuNDYgMC43NCAwLjFjNi4xOS01LjI1IDEwIDYuNTMgMS44NSA0LjQtOS4wNC0yLjM3LTE2LjA5LTkuNDYtMTYuMzQtMTkuMjVhMS40NCAxLjQzIDg5LjYgMCAxIDEuNDQtMS40N2w0LjA5IDAuMDFhMS4zNCAxLjMzIDEuMSAwIDAgMS4zNS0xLjI5YzAuMDQtMS41NiAwLjEtNC45MSAyLjYtNC40MWEwLjg5IDAuODcgNC43IDAgMSAwLjcxIDAuODJsMC4wNSAxLjI5cTAuMTIgMi44MyAxLjQ5IDAuMzVsMi4yOS00LjE0cTAuNzktMS40NC0wLjc2LTAuOTMtMi4zNiAwLjc4LTQuNjgtMC4xNS0wLjQyLTAuMTctMC43OCAwLjExLTAuOCAwLjYyLTEuODEgMC43NGEwLjkxIDAuOTEgMCAwIDEtMC44Ny0wLjQzcS0wLjgxLTEuMjktMC45My0yLjg3LTAuMDgtMC45NyAwLjktMC45NiAxLjc0IDAuMDEgMi40NyAxLjYzIDAuMTcgMC4zNyAwLjU4IDAuMyAwLjgxLTAuMTYgMS40LTAuNzggMC4zLTAuMzEgMC43My0wLjI5bDQuMjQgMC4xN3EwLjQ4IDAuMDIgMC4zMy0wLjQzLTAuNDctMS4zNi0xLjU0LTIuMzRhMSAxIDAgMCAwLTAuOTktMC4yMnEtMy42IDEuMTYtNi41NSAxLjAyLTIuMTctMC4xLTIuNzQgMS42NGExLjQ1IDEuNDMtOC41IDAgMS0wLjU2IDAuNzV6bTkwLjU3IDQyLjA3YzEuODctMC4zMyAzLjgtMS45NSA1LjktMi4yN2ExLjc3IDEuNzcgMCAwIDAgMS4xMS0yLjg2Yy0yLjEyLTIuNjUtMC42My01LjcxIDIuNjYtNS41NiAxLjA0IDAuMDQgMi4xMiAwLjc4IDMuMTcgMS4xNmEwLjkgMC45IDAgMCAwIDAuODQtMC4xMXExLjE0LTAuOCAxLjU4LTIuMDlhMC45MSAwLjg5LTU2LjkgMCAwLTAuMTctMC44N2MtMS4zNy0xLjU2LTMuMDItNC4yMi0xLjI1LTUuODUgMS4xMi0xLjA0IDMuMzItMS4xOSA0LjktMS40OXExLjI2LTAuMjQgMC43LTEuNzMtMC4xNS0wLjQyLTAuNTUtMC42MmMtNS40OS0yLjcyLTMuNzUtNS42MiAwLjQ5LTcuOTNxMC40Ny0wLjI2IDAuNDctMC43OXYtMS4yOXEwLTAuNjYtMC42NS0wLjU0LTIuNTEgMC40Ni00LjQ5LTAuOTFhMi41IDIuNDkgNDAuNSAwIDEtMC4zMS0zLjg1bDMuMDgtMi45NGEwLjc5IDAuNzgtNDAuOSAwIDAgMC4wOC0xLjA0bC0wLjU1LTAuNzNhMC4zNyAwLjM2IDQxLjYgMCAwLTAuNiAwLjAzYy0zLjM1IDUuNjItOC4zMiAyLjQ1LTUuNTEtMi41OXEwLjE5LTAuMzQtMC4xNS0wLjE3Yy0xLjMxIDAuNjUtMi4zMiAyLjAxLTMuNDkgMi41My0xLjk1IDAuODYtNC4xNC0wLjEzLTQuMjctMi40NnEtMC4wNC0wLjU3LTAuNTktMC40My0yLjQ1IDAuNjMtMy45NSAyLjY0LTAuNCAwLjU0IDAuMTkgMC44NyAwLjUxIDAuMjkgMC44IDAuODVhMS42MSAxLjYxIDAgMCAwIDIuMTYgMC42OWMxLjM1LTAuNyAyLjU2LTAuOTkgMy45MS0wLjAzcTYuMjQgNC40MiA1LjY4IDExLjg1Yy0wLjczIDkuNjItOC42OCAxNi4xNS0xNy43IDE3Ljc2LTMuMTcgMC41Ni00LjA2LTMuMTktMi4wNS00Ljc3cTIuOTMtMi4zIDUuMjItMC4xNSAwLjc4IDAuNzMgMS4zMSAwLjc3IDAuODcgMC4wNSAxLjUzLTAuN2EwLjUyIDAuNTEgMzUuOSAwIDAtMC4xMy0wLjc5bC00LjUzLTIuNjdxLTAuNTEtMC4zLTAuNjEtMC44OS0wLjE4LTEuMDgtMC44My0xLjkzYTAuNjQgMC42My0zNy4xIDAgMC0wLjg4LTAuMTJxLTEuMjYgMC45MS0yLjgxIDAuNzZhMS4yNiAxLjI2IDAgMCAxLTAuODQtMC40NHEtMS4zMS0xLjYtMC44OS0zLjY4IDAuMTQtMC43IDAuODEtMC45NmwxLjgyLTAuNjlxMC41MS0wLjE5IDAuNDctMC43NGMtMC4wNy0xLjA2LTAuNTktMS40Ni0xLjY0LTEuOHEtMi43Ny0wLjg5LTEuODItMy40NSAwLjczLTEuOTQtMS4wMy0wLjg0bC0xMS45OCA3LjU0cS0xLjA2IDAuNjctMC42NiAxLjg2YzMuNTQgMTAuNjIgMTIuMSAyNi45OSAyNi4wNSAyNC40NnptLTEyNS44NS0zNS43M2MwLjY2LTIuODIgMC4zNC02LjM2LTIuMzEtOC4wMXEtMC40LTAuMjUtMC40OCAwLjIybC0wLjE2IDAuOXEtMC4wNyAwLjM5IDAuMDcgMC43NWwyLjMxIDYuMThhMC4zIDAuMyAwIDAgMCAwLjU3LTAuMDR6bTE3MS42OC03LjE3Yy0xLjA5IDIuMjYtMi4xMyA2LjU1LTAuMzggOC43N3EwLjU0IDAuNjkgMC40NS0wLjE5LTAuNDMtNC4wOSAxLjY1LTcuNThhMC44MiAwLjgyIDAgMCAwLTAuMzEtMS4xNWwtMC4zNy0wLjE5cS0wLjctMC4zNy0xLjA0IDAuMzR6bS01My45MSA3LjEzYzAuMTUgNy4xMSAzLjU5IDE0Ljg0IDEwLjM5IDE3LjkycTEuMTMgMC41MiAyLjA0LTAuMzIgNC4zMy00LjAxIDUuMjYtOS44NCAwLjEtMC42Ny0wLjU3LTAuNzdjLTYuOTItMS4wMS0xMC41Ny00LjAyLTE0LjA5LTkuODZxLTAuNjEtMS0xLjUxLTAuMjUtMS41NiAxLjI4LTEuNTIgMy4xMnptLTgzLjI3IDcuNTJjMC4zMyAyLjYxIDMuNjUgMTEuNyA3LjM1IDEwLjIgNi44OC0yLjc5IDkuODUtMTAuMTUgMTAuMTctMTcuMTUgMC4wOC0xLjgzLTAuNjUtMi43OS0yLjI2LTMuNDVxLTAuNTEtMC4yMS0wLjc2IDAuMjktNC4yMSA4LjY1LTEzLjk1IDkuNDNhMC42MSAwLjYgODQuMSAwIDAtMC41NSAwLjY4em05Ny4zOS01LjI1cTAuOSAwLjQxIDEuNjItMC4wNWEwLjgxIDAuOC0zMS43IDAgMCAwLjI2LTEuMDhjLTIuNTktNC4zOC01LjA0LTMuMjktOS4zNS0zLjg0cS0wLjU2LTAuMDctMC40OSAwLjQ5IDAuMTUgMS4zOCAxLjMzIDIuMDlhMC44NyAwLjg2IDM4LjggMCAwIDEuMDUtMC4xMXExLjIxLTEuMTYgMi42LTAuNCAwLjQ3IDAuMjYgMC43MiAwLjc0IDAuNzUgMS41IDIuMjYgMi4xNnoiLz48cGF0aCBpZD0icGF0aDIiIGZpbGw9IiNiYWM4Y2EiIGQ9Im05NS4xNCAzNy43NWgtMi4yMnEtMS44OCAwLTIuNjIgMS43NGwtNC4yNiAxMC4wMnEtMC4yMyAwLjU1LTAuODIgMC42NWwtMC4yNiAwLjA0cS0wLjgyIDAuMTUtMC41Ni0wLjY1YzExLjcyLTM1LjYyIDU5LjI1LTM1LjcyIDcyLjI3LTAuOTJxMC40OSAxLjMxLTAuOSAxLjI5LTExLjEtMC4wOS0yMi45Mi0wLjAyLTQuOTggMC4wMy03LjY4IDIuOTFjLTEuMzggMS40Ny0xLjQxIDQuMS0zLjE1IDUuMjEtNC4zNyAyLjgtNS40Mi0zLjY0LTcuMzEtNS43My0zLjMzLTMuNjgtMTcuNDUtMi40NS0yMi4zOS0yLjI3cS0wLjk1IDAuMDMtMC41OS0wLjg1bDQuMTUtMTAuMzRxMC40My0xLjA4LTAuNzQtMS4wOHoiLz48cGF0aCBpZD0icGF0aDMiIGZpbGw9IiM2ODY5NjkiIGQ9Im05Ni42NCA1My44MXEtNy4yMSAwLjg2LTEzLjg4LTAuMTggNi40NC0xLjQ5IDEzLjg4IDAuMTh6Ii8+PHBhdGggaWQ9InBhdGg0IiBmaWxsPSIjYmFjOGNhIiBkPSJtODIuNzYgNTMuNjNxNi42NyAxLjA0IDEzLjg4IDAuMThjNC4wNi0wLjQxIDEzLjYzLTEuNTMgMTYgMi43OXEwLjUgMC45IDAuNzkgMC44NyAxLjE1LTAuMTYgMS4wNiAxLTAuODIgMTEuMjEtMC44MiAyMC45MiAwIDUuMjEtNS45MiA1LjExLTEwLjg5LTAuMi0yMS43My0wLjE0LTAuNSAwLTAuNjQtMC40OWMtMi44Ny0xMC4zMy01LjI5LTE5LjM1LTIuNjItMzAuMjR6bTI5Ljg3IDIwLjYycTEuMjktNS4yIDAuMDQtMTEuOS0wLjQ2LTIuNDYtMi4wOS0zLjk0Yy00LjQ4LTQuMDUtMTAuNjgtNC43Mi0xNS43LTEuMTctMTIuNCA4Ljc2LTIuNDEgMjguODcgMTIuMTggMjIuODJxNC42LTEuOTIgNS41Ny01LjgxeiIvPjxwYXRoIGlkPSJwYXRoNSIgZmlsbD0iI2JhYzhjYSIgZD0ibTEyNi43OSA3Mi43MXE0LjY3IDcuNjIgMTEuODcgNy4wOGMxMi4yNy0wLjkzIDE1LjU2LTE2LjkzIDUuMjctMjMuMTctNi4zOS0zLjg3LTEzLjQ1LTAuOC0xNi45NSA1LjE5LTAuODYtMy4zMSAwLjI0LTguMiA0LjUyLTguMjJxMTIuNjItMC4wNiAyNS4yNiAwLjA4IDAuMzYgMC4wMSAwLjQ2IDAuMzVjMi44NyA5LjcxIDAuMjQgMTkuNDctMi40NiAyOS45OHEtMC4xMiAwLjQ1LTAuNTkgMC40NS0xMC43LTAuMTEtMjEuNDItMC4wNWMtNy4zIDAuMDQtNi40LTUuOTQtNS45Ni0xMS42OXoiLz48cGF0aCBpZD0icGF0aDYiIGZpbGw9IiNkZGU2ZWYiIGQ9Im0xNjAuMDQgNTQuODRxLTAuMjYtMi4yNSAxLjU1LTAuOWwxLjgzIDEuMzVxMS45IDEuNDEgMS44OSAzLjc3bC0wLjAyIDIxLjM2YTMuNDQgMy40My01LjkgMCAxLTIuNzQgMy4zNmwtMi45OSAwLjYzcS0yLjY2IDAuNTYtMS45OC0yLjA4IDEuODktNy4zIDMuMDQtMTYuMzYgMC4zOS0yLjk5LTAuNTgtMTEuMTN6Ii8+PHBhdGggaWQ9InBhdGg3IiBmaWxsPSIjZGRlNmVmIiBkPSJtNzYuNzIgODIuMjZxLTAuNzEtMS42NC0wLjcyLTIuNTEtMC4xLTkuOTktMC4wNS0xOS45NmMwLjAyLTIuOSAwLjcxLTQuODEgMy4yMi02LjExYTAuNzcgMC43NyAwIDAgMSAxLjExIDAuODJjLTEuODUgMTAuMjMtMC4xMyAxOC4zMiAyLjM1IDI4LjMzcTAuNCAxLjYyLTEuMjcgMS40NWwtMi4yLTAuMjRhMyAzIDAgMCAxLTIuNDQtMS43OHoiLz48cGF0aCBpZD0icGF0aDgiIGZpbGw9IiNmY2ZkZmQiIGQ9Im0xMTIuNjMgNzQuMjVxLTAuOTcgMy44OS01LjU3IDUuODFjLTE0LjU5IDYuMDUtMjQuNTgtMTQuMDYtMTIuMTgtMjIuODIgNS4wMi0zLjU1IDExLjIyLTIuODggMTUuNyAxLjE3cTEuNjMgMS40OCAyLjA5IDMuOTQgMS4yNSA2LjctMC4wNCAxMS45em0tMTIuNDMtMTAuODZhMS44NCAxLjgzLTQ3LjYgMCAxIDAuMTMgMy4wM3EtMi41OCAxLjkzLTQuNDYtMC41Ni0wLjQ1LTAuNTktMC42NyAwLjEyYy0zLjk4IDEyLjY4IDE1LjQxIDEyLjg3IDE0LjUzIDEuNTEtMC40NC01LjgxLTcuNzUtMTAuNy0xMi4wOC01LjQ2cS0wLjk5IDEuMiAwLjU1IDAuOTYgMS4wOC0wLjE3IDIgMC40eiIvPjxwYXRoIGlkPSJwYXRoOSIgZmlsbD0iI2ZjZmRmZCIgZD0ibTEyNi43OSA3Mi43MSAwLjE5LTEwLjljMy41LTUuOTkgMTAuNTYtOS4wNiAxNi45NS01LjE5IDEwLjI5IDYuMjQgNyAyMi4yNC01LjI3IDIzLjE3cS03LjIgMC41NC0xMS44Ny03LjA4em05LjY0LTkuNTFhMS44NSAxLjg1IDAgMCAxLTAuMzkgMy4wN3EtMi4zIDEuMTItMy44Ny0wLjkzYTAuNTcgMC41NyAwIDAgMC0xIDAuMjJxLTAuOTEgMy44NyAxLjE3IDYuM2M1LjczIDYuNzIgMTYuMzEtMS44NSAxMS41LTguODQtMi4yNC0zLjI1LTUuNjUtNC4zMi04Ljk2LTEuNzVxLTAuMzcgMC4zLTAuMDEgMC42MWwxLjU2IDEuMzJ6Ii8+PHBhdGggaWQ9InBhdGgxMCIgZmlsbD0iIzBhMGYxMSIgZD0ibTEzNi40MyA2My4yLTEuNTYtMS4zMnEtMC4zNi0wLjMxIDAuMDEtMC42MWMzLjMxLTIuNTcgNi43Mi0xLjUgOC45NiAxLjc1IDQuODEgNi45OS01Ljc3IDE1LjU2LTExLjUgOC44NHEtMi4wOC0yLjQzLTEuMTctNi4zYTAuNTcgMC41NyAwIDAgMSAxLTAuMjJxMS41NyAyLjA1IDMuODcgMC45M2ExLjg1IDEuODUgMCAwIDAgMC4zOS0zLjA3eiIvPjxwYXRoIGlkPSJwYXRoMTEiIGZpbGw9IiMwYTBmMTEiIGQ9Im0xMDAuMiA2My4zOXEtMC45Mi0wLjU3LTItMC40LTEuNTQgMC4yNC0wLjU1LTAuOTZjNC4zMy01LjI0IDExLjY0LTAuMzUgMTIuMDggNS40NiAwLjg4IDExLjM2LTE4LjUxIDExLjE3LTE0LjUzLTEuNTFxMC4yMi0wLjcxIDAuNjctMC4xMiAxLjg4IDIuNDkgNC40NiAwLjU2YTEuODQgMS44My00Ny42IDAgMC0wLjEzLTMuMDN6Ii8+PHBhdGggaWQ9InBhdGgxMiIgZmlsbD0iI2JhYzhjYSIgZD0ibTE1NC4yIDg4LjM0Yy0yLjE4IDkuMjUtMi45MiAxNS4yMS0zLjUgMjAuNDgtMC4wNDI5IDAuMzQ5NTktMC4yNzM4NiAwLjY0NTk5LTAuNiAwLjc3LTEwLjM5IDMuOTUtMjQuOTcgOS42My0zNi4wNyA3LjI0LTguMDItMS43MjY3LTE1LjgyMy00LjA5LTIzLjQxLTcuMDktMC40Ni0wLjE4LTAuNzMtMC41MTMzMy0wLjgxLTFsLTMuNDgtMjAuMDFjLTAuMDUzMzMtMC4zMTMzMyAwLjA4LTAuNDczMzMgMC40LTAuNDggNy4yOTMzLTAuMDQ2NjcgMTQuNTQzLTAuMDQzMzMgMjEuNzUgMC4wMSAzLjMgMC4wMiA1LjcwMzMtMS4yNDMzIDcuMjEtMy43OSAyLjQ4LTQuMTkgMS41MS0xMy43NSAxLjQyLTE5LjEtMC4wMzMzLTIgMC45NS0yLjk3MzMgMi45NS0yLjkybDAuODYgMC4wMmMxLjMyMDEgMC4wMzI3MiAyLjM2MzYgMS4xMjk5IDIuMzMgMi40NS0wLjIwNjY3IDcuNjgtMC4yMjY2NyAxMi42MTctMC4wNiAxNC44MSAwLjUxIDYuNTcgNC40NiA4LjIyIDEwLjY2IDguMjYgNi42NiAwLjAzMzMzIDEzLjMwNy0wLjAyIDE5Ljk0LTAuMTYgMC4zNi0wLjAwNjcgMC40OTY2NyAwLjE2MzMzIDAuNDEgMC41MXoiLz48ZyBpZD0iZzE2IiBmaWxsPSIjMDk2ZWQwIj48cGF0aCBpZD0icGF0aDEzIiBkPSJtMzYuNzQgMTMzLjM4cS0zLjYyLTEwLjc2LTAuOTQtMjEuODcgMC4xOC0wLjc0IDAuNDMtMC4wMmMxLjkyIDUuNTIgOC4xLTAuOTcgNC45LTMuMzlxLTIuMDItMS41My00LjI0LTAuMzEtMC40OSAwLjI3LTAuMzYtMC4yN2wxLjQ5LTYuMDNhMC4zMiAwLjMxIDI0LjYgMCAxIDAuNDktMC4xOGMyLjI5IDEuNjggNC43MiAxLjg2IDUuNTktMS40NSAxLTMuOC0zLjY1LTQuNzEtNS44MS0xLjYxcS0wLjE5IDAuMjYtMC4yOS0wLjA1bC0xLjY3LTQuOTdxLTAuMTMtMC40IDAuMjMtMC42M2M1LjEtMy4yOS0wLjg0LTguMDQtMy4xLTMuNDNhMC42NSAwLjY0LTY5IDAgMS0wLjc1IDAuMzRxLTMuMS0wLjg2LTQuMjktMy45LTAuMTktMC40NyAwLjE1LTAuODVjMi43Mi0zLjA5IDguMzMtMS4yMSAxMS4xMiAwLjU3IDguNzMgNS41NCA5Ljk3IDE2LjE3IDcuOTYgMjUuNDRxLTEuMDMgNC43My0wLjk0IDYuNzRjMC4zMSA2Ljg5IDMuNzIgMTcuNCAxMS4xMiAxOS42NiA1LjU4IDEuNyAxMi42Mi0wLjAxIDE5LjA4LTIuMzNhMC4zNSAwLjM0IDc5LjcgMCAxIDAuNDYgMC4zMmwwLjAzIDEuMzZxMC4wMiAwLjU4LTAuNTUgMC42NWMtMy4yIDAuNDMtNi44OCAwLjU0LTkuNyAxLjY0cS04LjI2IDMuMjMtMTEuMTMgMTIuMjhhMC42NSAwLjY0LTcwLjIgMCAxLTAuODYgMC40MWMtMy43MS0xLjUxLTguNzUtMy4xMi0xMS4xNC02LjYtMS43Mi0yLjUxLTUuMTMtNi4wMi02LjEtOC43NHEtMC4zLTAuODYgMC4zMy0wLjJsMS4wMiAxLjA2YTIuNDcgMi40NyAwIDAgMCAzLjIxIDAuMjljNC4zMS0zLjEtMC41OC04LjY5LTQuNzktNS4xOXEtMC4zOCAwLjMyLTAuNDMgMC44MS0wLjAzIDAuMjYtMC4xMyAwLjQ3LTAuMjMgMC40OC0wLjM5LTAuMDJ6bTQuNzctMTEuMDVhMy4yMyAzLjIzIDAgMCAwLTMuMjMtMy4yMyAzLjIzIDMuMjMgMCAwIDAtMy4yMyAzLjIzIDMuMjMgMy4yMyAwIDAgMCAzLjIzIDMuMjMgMy4yMyAzLjIzIDAgMCAwIDMuMjMtMy4yM3ptMTAuNiAyMS4xOWEzLjI5IDMuMjkgMCAwIDAtMy4yOS0zLjI5IDMuMjkgMy4yOSAwIDAgMC0zLjI5IDMuMjkgMy4yOSAzLjI5IDAgMCAwIDMuMjkgMy4yOSAzLjI5IDMuMjkgMCAwIDAgMy4yOS0zLjI5eiIvPjxwYXRoIGlkPSJwYXRoMTQiIGQ9Im0xODkuOTkgMTQ5Ljg3Yy0wLjk4IDAuNC0yLjc1IDEuNjctNC4zNCAxLjkycS0wLjU1IDAuMDktMC43NS0wLjQzYy0yLjE3LTUuNTktOC43OC0xNi42OC0xNi4zNC0xMi43MXEtMC4zNyAwLjItMC40NS0wLjIyLTAuMjQtMS40Mi0xLjIzLTIuNTRhMC4zNSAwLjM1IDAgMCAxIDAuMzYtMC41NmM3Ljc4IDIuMjggMTYuNDYgNS4yNSAyMi4xNi0yLjk3cTYuNDktOS4zOCA0LjM0LTIwLjQ4LTEuMi02LjE4LTEuMjMtNy41MWMtMC4yNi0xMS41OSA1Ljk5LTIyLjYgMTkuMy0yMC44N2EwLjQgMC40IDAgMCAxIDAuMjggMC42MXEtMS4xMSAxLjY4LTEuMDYgMy43NmEwLjg0IDAuODMtMTIuMSAwIDEtMC41MSAwLjc4bC0yLjM2IDAuOThxLTAuNTEgMC4yMS0wLjY5LTAuMzEtMS4xNC0zLjE4LTQuNDItMS40NWEyIDEuOTkgNjAuNyAwIDAtMC43OCAyLjc5cTAuNzIgMS4xOSAyLjIyIDEuNTUgMC41NyAwLjEzIDAuMzYgMC42N2wtMS42MiA0LjM5cS0wLjE2IDAuNDMtMC41OCAwLjI3Yy0yLjA1LTAuNzctMy4yOC0yLjU2LTUuMjMtMC4zNi0yLjg5IDMuMjUgMS43OCA3LjQzIDUuMTggNC4xN3EwLjM2LTAuMzQgMC40OCAwLjE0bDEuNDEgNS43OGEwLjM2IDAuMzUtODQuNyAwIDEtMC40OSAwLjQxcS0zLjQ3LTEuNjEtNC43IDEuMjZjLTEuMzcgMy4yIDIuOTggNS43IDUuNiAzLjQxcTAuMzUtMC4zMSAwLjQ4IDAuMTRjMS45MSA2LjggMC42NyAxNS40NC0xLjc0IDIxLjc3cS0wLjQ2IDEuMjEtMC42NCAxLjk3LTAuMTEgMC40OC0wLjM5IDAuODdjLTMuNjMgNS4wMi02LjYgMTAuMzItMTIuNjIgMTIuNzd6bTE1Ljg2LTI3LjU3YTMuMSAzLjEgMCAwIDAtMy4xLTMuMSAzLjEgMy4xIDAgMCAwLTMuMSAzLjEgMy4xIDMuMSAwIDAgMCAzLjEgMy4xIDMuMSAzLjEgMCAwIDAgMy4xLTMuMXptLTYuMTY2MiAxNS41MmEzLjQ3IDMuMjIgOTQuNCAwIDAgMy40NzY3LTMuMjEyOCAzLjQ3IDMuMjIgOTQuNCAwIDAtMi45NDQzLTMuNzA2OCAzLjQ3IDMuMjIgOTQuNCAwIDAtMy40NzY3IDMuMjEyOCAzLjQ3IDMuMjIgOTQuNCAwIDAgMi45NDQzIDMuNzA2OHptLTkuNzQwNiA4LjUzNDFhMy40MyAzLjE2IDEyMS4yIDAgMCA0LjQ3OTgtMS4yOTY5IDMuNDMgMy4xNiAxMjEuMiAwIDAtMC45MjYyLTQuNTcwOSAzLjQzIDMuMTYgMTIxLjIgMCAwLTQuNDc5OCAxLjI5NjkgMy40MyAzLjE2IDEyMS4yIDAgMCAwLjkyNjIgNC41NzA5eiIvPjxwYXRoIGlkPSJwYXRoMTUiIGQ9Im0yMjIuNiA5Mi4xOGExLjExIDEuMTEgMCAwIDEtMC4xMyAxLjI3bC0wLjI4IDAuMzJhMC41MyAwLjUzIDAgMCAxLTAuODgtMC4xMWMtMS42OS0zLjU0LTIuODctNC4yOS02LjYyLTUuMjZxLTAuODktMC4yMy0wLjY0LTEuMTFsMC42OC0yLjM1YTAuNjggMC42OCAwIDAgMSAxLjA0LTAuMzdxNC4zMiAyLjk4IDYuODMgNy42MXoiLz48cGF0aCBpZD0icGF0aDE2IiBkPSJtMTkuMDYgOTIuODNxLTAuMSAwLjM0LTAuMiAwLjM5LTAuOTIgMC41My0wLjU1LTAuNDkgMS44OS01LjI0IDYuNy04LjAxIDEtMC41NyAwLjk3IDAuNTdsLTAuMDQgMS4xOXEtMC4wMyAxLjI0LTEuMTYgMS43M2wtMi44IDEuMjFxLTAuNDggMC4yMS0wLjc4IDAuNjQtMC44OSAxLjI4LTEuOTMgMi40MS0wLjE0IDAuMTUtMC4yMSAwLjM2eiIvPjwvZz48cGF0aCBpZD0icGF0aDE3IiBmaWxsPSIjNjg2OTY5IiBkPSJtMTU3Ljk2IDEyMi44Ny0yMC4zNyAxMy45NWEwLjMgMC4zIDAgMCAxLTAuNDMtMC4wOWwtMTAuNjYtMTcuMTdhMC4zIDAuMyAwIDAgMSAwLjE3LTAuNDVsMjUuNTEtOC4wOWEwLjMgMC4zIDAgMCAxIDAuMzYgMC4xNWw1LjUyIDExLjMyYTAuMyAwLjMgMCAwIDEtMC4xIDAuMzh6Ii8+PHBhdGggaWQ9InBhdGgxOCIgZmlsbD0iIzY4Njk2OSIgZD0ibTg4LjIyIDExMS4xMSAyNS42MyA3Ljg2YTAuMzIgMC4zMiAwIDAgMSAwLjE4IDAuNDhsLTExLjMgMTcuMjZhMC4zMiAwLjMyIDAgMCAxLTAuNDUgMC4wOWwtMTkuODYtMTQuMTFhMC4zMiAwLjMyIDAgMCAxLTAuMS0wLjQxbDUuNTItMTEuMDFhMC4zMiAwLjMyIDAgMCAxIDAuMzgtMC4xNnoiLz48Y2lyY2xlIGlkPSJjaXJjbGUxOCIgZmlsbD0iIzBhMGYxMSIgcj0iMy4yMyIgY3k9IjEyMi4zMyIgY3g9IjM4LjI4Ii8+PGNpcmNsZSBpZD0iY2lyY2xlMTkiIGZpbGw9IiMwYTBmMTEiIHI9IjMuMSIgY3k9IjEyMi4zIiBjeD0iMjAyLjc1Ii8+PHBhdGggaWQ9InBhdGgxOSIgZmlsbD0iIzAwMWYzZSIgZD0ibTEyNS43MyAxMzMuNjZjLTAuMTUgMC41Mi0wLjI5IDAuODctMC4xIDEuNDRxMy40IDkuNzcgNi40OCAxOC44MmwwLjIxIDUuNDNhMC43OSAwLjc4IDc4LjUgMCAxLTAuNSAwLjc2Yy0yLjMxIDAuOTQtNC4yNSAzLjczLTMuNjcgNi4xbC03LjA3IDguNnEtMC40IDAuNDktMC44NSAwLjA0bC0xLjI4LTEuMjZxMC4zIDAuMSAwLjUxLTAuMDcgMC40LTAuMzMgMC4wNy0wLjc0bC02LjM2LTcuODdxLTAuMDMtMC4wNC0wLjA3IDAtMC4xMSAwLjEtMC4xOCAwLjE4LTAuMDQgMC4wMy0wLjA0IDAuMDMgMC0wLjYtMC4yNy0wLjg5LTEuMTYtMS4yNy00LjMyLTQuMzYtMC4zMi0wLjMyLTAuMTItMC43MiAxLjE3LTIuNDEgMS4zMy01LjEyIDAuMDMtMC4zOCAwLjMyLTAuNjEgMC4xMy0wLjEgMC4yMi0wLjE5dDAuMTItMC4yMnEwLjU2LTIuMTQgMS4wNC00LjI4YzAuNDgtMi4xNiAxLjg1LTQuMzYgMi4xMS02LjgycTAuMjItMi4wNiAwLjY4LTMuMiAwLjctMS43IDEuNC0zLjI1YTIuNDIgMi40MiAwIDAgMC0wLjM2LTIuNTlsLTQuNDgtNS4yMXEtMC4yMS0wLjI0LTAuMDMtMC41MWw0LjM2LTYuNzdxMC41Ni0wLjg3IDEuNTktMC43MSAzLjkgMC42NCA3Ljc5LTAuMjFhMS42IDEuNTkgNzEuOCAwIDEgMS44IDAuOTFxMS4zNCAzLjA5IDMuMzMgNS41NyAwLjY5IDAuODcgMC43NSAxLjQ1IDAuMSAxLTAuOTQgMS40LTAuNDQgMC4xNi0wLjc1IDAuNTItMS4zIDEuNS0yLjQ2IDMuMDgtMS4yNyAxLjcyLTAuMjYgMS4yN3oiLz48cGF0aCBpZD0icGF0aDIwIiBmaWxsPSIjYmFjOGNhIiBkPSJtMTMyLjExIDE1My45MnEtMy4wOC05LjA1LTYuNDgtMTguODJjLTAuMTktMC41Ny0wLjA1LTAuOTIgMC4xLTEuNDRsNC4yMy00LjQ5YTAuNzQgMC43MyA1MC42IDAgMSAxLjE2IDAuMTJsNS41MiA4LjY5YTAuNjcgMC42NyAwIDAgMCAwLjk1IDAuMTlsMTUuOTgtMTAuODNhMC44OCAwLjg4IDAgMCAxIDEuMyAwLjM2bDQuNjcgMTAuMjhxMC4yMyAwLjQ5IDAuMDQgMS0xLjAyIDIuODItMy4wMiA0LjMzLTkuNjEgNy4yNC0yMi40NCAxNC43Mi0wLjQ4IDAuMjgtMC42Ny0wLjI1bC0xLjM0LTMuODZ6Ii8+PHBhdGggaWQ9InBhdGgyMSIgZmlsbD0iI2JhYzhjYSIgZD0ibTEwMi4yMyAxMzguMDVhMC44MiAwLjgxIDMzLjQgMCAwIDEuMTUtMC4yM2w1LjYzLTguOGEwLjY5IDAuNjgtNTAuNyAwIDEgMS4wNy0wLjExbDMuNzEgMy44N2EyLjMzIDIuMzMgMCAwIDEgMC41NSAyLjI4bC02Ljg3IDIyLjk0cS0wLjE3IDAuNTUtMC42NyAwLjI3LTEwLjIyLTUuOTQtMTkuNzgtMTIuNzdjLTIuNjUtMS44OS0yLjI3LTQuMzQtNC4zLTYuNzFxLTAuMzItMC4zOC0wLjExLTAuODNsNC40LTkuNjVhMC42IDAuNTktNjAgMCAxIDAuODgtMC4yNGwxNC4zNCA5Ljk4eiIvPjxwYXRoIGlkPSJwYXRoMjIiIGZpbGw9IiMwOTZlZDAiIGQ9Im04MS4zOCAxMzYuODZxLTAuNDIgMC44LTAuNzctMC4wMy0wLjY2LTEuNTYtMi4yNy0yLjA5LTAuNjItMC4yMS0wLjA3LTAuNTdsNC42NS0zLjA3cTIuMjgtMS41IDEuMDEgMC45MmwtMi41NSA0Ljg0eiIvPjxlbGxpcHNlIGlkPSJlbGxpcHNlMjIiIGZpbGw9IiMwYTBmMTEiIHJ5PSIzLjIyIiByeD0iMy40NyIgdHJhbnNmb3JtPSJ0cmFuc2xhdGUoMTk5Ljk1LDEzNC4zNikgcm90YXRlKDk0LjQpIi8+PHBhdGggaWQ9InBhdGgyMyIgZmlsbD0iIzA5NmVkMCIgZD0ibTE2MS40IDEzNy41Ny0yLjc3LTUuMjdhMC40OSAwLjQ5IDAgMCAxIDAuNjgtMC42Nmw1LjE2IDIuOTdhMC40OSAwLjQ5IDAgMCAxIDAuMSAwLjc4bC0yLjQgMi4zMWEwLjQ5IDAuNDkgMCAwIDEtMC43Ny0wLjEzeiIvPjxwYXRoIGlkPSJwYXRoMjQiIGZpbGw9IiMxZTJhMzAiIGQ9Im0yMTguMzcgMTM2LjM0cS0wLjY3IDAuMS0wLjg5LTAuNDYtMC4zMi0wLjc5IDAuNTMtMC43NmwwLjk0IDAuMDNhMC4zOSAwLjM5IDAgMCAxIDAuMzEgMC42cS0wLjMzIDAuNS0wLjg5IDAuNTl6Ii8+PGcgaWQ9ImcyOCIgZmlsbD0iIzA5NmVkMCI+PHBhdGggaWQ9InBhdGgyNSIgZD0ibTE4OC4wNiAxODEuMzUgMS45NCAxLjAycTAuMDUgMC4wMyAwLjAyIDAuMTEtMC4wNSAwLjEyLTAuMTcgMC4wNy0xLjE0LTAuNDctMi4yOS0wLjk2YTIuNTggMi41NSA1NS42IDAgMC0xLjA0LTAuMnEtMS41NCAwLjA1LTIuOTUtMC42YTAuNSAwLjQ5LTYzLjIgMCAxLTAuMjItMC42OWwxLjQ5LTIuNzNxMC4yOC0wLjUyLTAuMS0wLjk3LTEuMDItMS4yLTIuNDItMS44MS0wLjg4LTAuMzktMC41LTEuMjdsMS44Ny00LjQxcTAuNDEtMC45NyAxLjQtMC42M2MxMS44NCA0LjA2IDI4LjAzIDMuMTggMzYuOTctNi40NiA0LjM2LTQuNjkgNi41NS0xMy4zNCAyLjE2LTE4LjYxLTMuMzUtNC4wMS04LjQ3LTMuNDYtMTMuMDktMS42MnEtMC41NyAwLjIzLTAuNTMtMC4zNyAwLjA3LTEtMC4xOS0xLjk3YTAuOTUgMC45NC0zMS42IDAgMSAwLjIxLTAuODdxMS45NC0yLjE0IDQuODQtMi40NSAwLjQ3LTAuMDUgMC42IDAuNGMxLjE0IDMuNzUgNC41NyAxLjkgNS44Ny0wLjU0YTEuMTYgMS4xNiAwIDAgMSAxLjM5LTAuNTVsMi45NCAwLjk3cTEuMDEgMC4zMyAwLjM1IDEuMTZjLTMuMDYgMy44NyAyLjQ2IDcuOTMgNC45NSAzLjc5cTAuMy0wLjUxIDAuNjktMC4wNiAxLjc1IDEuOTkgMi40MiA0LjYgMC4xMyAwLjUxLTAuMzggMC42MWMtMS44OCAwLjM2LTMuOTIgMS4xMS00LjI1IDMuMjQtMC41NiAzLjYyIDMuMDMgMy4yNSA1LjQ1IDMuNzJxMC43MSAwLjE0IDAuNTggMC44NGwtMC45MSA1LjA5cS0wLjE3IDAuOTQtMC43OSAwLjIyYy02LjA0LTYuOS04LjU1IDcuMjItMS43MyA1LjAzcTEuMDMtMC4zMyAwLjMzIDAuNWwtNC40NiA1LjI3cS0wLjQ4IDAuNTctMC43NS0wLjEzLTAuODgtMi4yOC0zLjItMy4wMWExLjA1IDEuMDQgMzguMiAwIDAtMC44NyAwLjFxLTEuOCAxLjA4LTIuODEgMi45Mi0wLjI1IDAuNDgtMC4wOSAwLjk5IDAuNjQgMS45OCAyLjU0IDIuODdhMC40NCAwLjQ0IDAgMCAxIDAuMDYgMC43NmwtNSAzLjQ2YTAuNDQgMC40MyA3Mi42IDAgMS0wLjY4LTAuMzZxLTAuMDQtMi45OC0yLjc2LTQuMTMtMC41Mi0wLjIyLTEuMDQtMC4wMS00LjU0IDEuODctMS43NiA2LjE1YTAuMjUgMC4yNSAwIDAgMS0wLjE0IDAuMzdsLTUuNzggMS43MnEtMC4zMSAwLjEtMC4yNC0wLjIzYzIuMzQtOS42OC0xMS4zNi00LjM0LTUuODYgMC41OHEwLjQ2IDAuNDEtMC4xNSAwLjRsLTQuNTYtMC4wM3EtMC41MiAwLTAuMzktMC41MWMxLjYyLTYuNDYtNi43NS04LjI0LTcuMzUtMS40OXEtMC4wNCAwLjQ4IDAuMzggMC43MXoiLz48cGF0aCBpZD0icGF0aDI2IiBkPSJtNi4zIDE2MC43NnEwLjE2IDAuMTMgMC4wMiAwLjM1LTAuMjYgMC40MS0wLjM2LTAuMDZsLTEuNjItNy4yYTAuNSAwLjUgMCAwIDEgMC42LTAuNTlxNS4wMSAxLjExIDUuNTctMy44OCAwLjIxLTEuOTEtMS42NS0yLjQzbC0xLjI1LTAuMzVxLTEuNjUtMC40Ni0xLjUxIDEuMjYgMC4xNSAxLjg1LTAuMzEgMi4xNy0xLjk5IDEuNC0wLjk0LTAuNzkgMC44NS0xLjc3IDEuMDktMy43MyAwLjE2LTEuMjggMi44Mi00Ljc0IDAuMzMtMC40MyAwLjYzIDAuMDIgMi4wNiAzLjA4IDUuMzkgMC44YTAuOTEgMC45LTE3LjEgMCAwIDAuNC0wLjc1cTAuMDItMi41Ni0yLjQtMy40My0wLjI1LTAuMDktMC4wMy0wLjI0IDIuNzktMi4wMyA2LjI0LTEuNyAwLjQ5IDAuMDUgMC42IDAuNTMgMC4zNyAxLjU3IDEuNDYgMi43N2EwLjk5IDAuOTkgMCAwIDAgMS4wMSAwLjI3cTIuMjMtMC43MiAyLjUzLTMuMTQgMC4wOS0wLjY3IDAuNy0wLjM4bDQuMjkgMi4xYTEuMjIgMS4yLTcxLjggMCAxIDAuNjUgMS4zMXEtMC40MSAyLjEyLTIuNDIgMS41NWMtOC44Mi0yLjQ5LTE1LjE0IDQuNjUtMTIuODkgMTMuMTkgNC41MiAxNy4xNyAyNi43NSAxOS4xNiA0MC4zOCAxNC43NGExLjc3IDEuNzYgNjkuNiAwIDEgMi4xOCAxbDEuNiAzLjg2cTAuMjIgMC41My0wLjI2IDAuODVjLTIuNTQgMS42My0zLjM1IDQuNDYgMC4wMSA1Ljg4YTAuNDUgMC40NSAwIDAgMS0wLjA5IDAuODVsLTQuODkgMC45NWEwLjY3IDAuNjYgODYuNCAwIDEtMC43OS0wLjdjMC41OS03LjU1LTEwLTUuMy02LjA5IDAuODRxMC4yNiAwLjQxLTAuMjIgMC40MWwtNi0wLjA5cS0xLjQtMC4wMi0wLjMtMC44OCAxLjI4LTAuOTkgMS4zOS0yLjYzYTAuOTIgMC45MSAyMy4zIDAgMC0wLjMtMC43NHEtMi41Mi0yLjMzLTUuNzItMS4wNGExLjM4IDEuMzYgMC40IDAgMC0wLjcyIDAuN3EtMS4wMyAyLjI3IDAuNjYgNC4wMiAwLjYzIDAuNjUtMC4yNCAwLjQxbC02Ljc4LTEuOTFhMC4yNiAwLjI2IDAgMCAxLTAuMTMtMC40MWM0LjE2LTUuMTUtNC40My05LjQzLTUuODYtMS45MnEtMC4xMSAwLjU5LTAuNjMgMC4yOGwtNC42My0yLjc1YTAuNTYgMC41NiAwIDAgMSAwLjExLTEuMDFjMy41Mi0xLjIxIDIuNTMtNC42IDAuMi02LjQzLTIuNTQtMS45OS0zLjczIDAuMDEtNC45NCAxLjk2YTAuODIgMC44MiAwIDAgMS0xLjM3IDAuMDRsLTMuNTktNS4wOXEtMC40Ny0wLjY2IDAuMjktMC4zOCAxLjU1IDAuNTggMi44Mi0wLjQ0YzQuNzEtMy43OS0zLjQtMTAuNTMtNC43OC0zLjQ4cS0wLjAzIDAuMTIgMC4wNyAwLjJ6Ii8+PHBhdGggaWQ9InBhdGgyNyIgZD0ibTcxLjI2IDE0Mi43MXEwLjU3LTEuNzQgMi43NC0xLjY0IDIuOTUgMC4xNCA2LjU1LTEuMDJhMSAxIDAgMCAxIDAuOTkgMC4yMnExLjA3IDAuOTggMS41NCAyLjM0IDAuMTUgMC40NS0wLjMzIDAuNDNsLTQuMjQtMC4xN3EtMC40My0wLjAyLTAuNzMgMC4yOS0wLjU5IDAuNjItMS40IDAuNzgtMC40MSAwLjA3LTAuNTgtMC4zLTAuNzMtMS42Mi0yLjQ3LTEuNjMtMC45OC0wLjAxLTAuOSAwLjk2IDAuMTIgMS41OCAwLjkzIDIuODdhMC45MSAwLjkxIDAgMCAwIDAuODcgMC40M3ExLjAxLTAuMTIgMS44MS0wLjc0IDAuMzYtMC4yOCAwLjc4LTAuMTEgMi4zMiAwLjkzIDQuNjggMC4xNSAxLjU1LTAuNTEgMC43NiAwLjkzbC0yLjI5IDQuMTRxLTEuMzcgMi40OC0xLjQ5LTAuMzVsLTAuMDUtMS4yOWEwLjg5IDAuODcgNC43IDAgMC0wLjcxLTAuODJjLTIuNS0wLjUtMi41NiAyLjg1LTIuNiA0LjQxYTEuMzQgMS4zMyAxLjEgMCAxLTEuMzUgMS4yOWwtNC4wOS0wLjAxYTEuNDQgMS40MyA4OS42IDAgMC0xLjQ0IDEuNDdjMC4yNSA5Ljc5IDcuMyAxNi44OCAxNi4zNCAxOS4yNSA4LjE1IDIuMTMgNC4zNC05LjY1LTEuODUtNC40cS0wLjQyIDAuMzYtMC43NC0wLjEtMC4xNC0wLjItMC4xNi0wLjU1LTAuMDMtMC4yOSAwLjE1LTAuNjJjMS4yNy0yLjM2IDMuNTItMy44NiA0LjU5LTYuMThxMC4xOS0wLjQyIDAuMzMgMC4wMiAwLjA5IDAuMjkgMC4wMyAwLjU5LTAuMjUgMS4yIDAuOTggMS4xOGM1LjA2LTAuMDkgNC43My03LjI3IDAuODctNS42MmEwLjQ1IDAuNDUgMCAwIDEtMC41Ny0wLjY0bDMuMy01LjcxcTAuNjYtMS4xNiAxLjgxLTAuNDdsMTIuMzQgNy41MWEwLjY5IDAuNjggMjQuNCAwIDEgMC4zIDAuNzljLTMuMzUgMTAuNDctMTAuNTggMjMuODQtMjIuNzcgMjUuNzJhMC44IDAuOCAwIDAgMS0wLjkzLTAuNzRjLTAuMTUtMi4wNi0xLjIxLTUuMTYtMy45Ny00LjU0YTEuMjQgMS4yMy04My4zIDAgMC0wLjg0IDAuNjdxLTAuNjQgMS4zNCAwLjA3IDIuNzRhMC41MyAwLjUzIDAgMCAxLTAuNzUgMC42OWwtOC4zOS01LjE5cS0wLjEyLTAuMDgtMC4wNi0wLjJsMC4xNy0wLjNxMC4wMS0wLjAzIDAuMTEtMC4wMSAxLjI2IDAuMTggMi4xMiAxLjE0YTEuNTUgMS41NCAzNy41IDAgMCAyLjUzLTAuMzNxMC45MS0xLjc4LTAuMTUtMy4zOS0yLjc0LTQuMTUtNi41OCAwLjA3LTAuNDEgMC40NS0wLjc1LTAuMDVsLTEuNy0yLjVxLTAuMzQtMC41IDAuMTItMC44OGMzLjQ2LTIuOTMgMy41NC03LjItMi4yMS03LjM0cS0wLjc1LTAuMDItMC45MS0wLjc0bC0wLjQ2LTEuOTZxLTAuMTUtMC42NCAwLjQ2LTAuODhjMS41My0wLjYgMy42Ni0wLjk5IDMuNDYtMy4xMS0wLjE1LTEuNjQtMi44NC0zLjE3LTQuMTUtNC4wOWEwLjY4IDAuNjcgNDAgMCAwLTAuODcgMC4wN2wtMC4yNiAwLjI2YTAuMzMgMC4zMyAwIDAgMS0wLjU2LTAuMjVxMC4wOS0xLjcgMC43OS0zLjI1IDAuMjItMC41IDAuNjYtMC4xNmM2LjAyIDQuODEgOC41Ny03LjE4IDEuNTMtNS4yM3EtMC41MyAwLjE1LTAuMzQtMC4zNiAwLjA4LTAuMjMgMC4yOS0wLjM5IDIuMDktMS42NCA0LjM0LTMuMTJhMC40NCAwLjQ0IDAgMCAxIDAuNjggMC4yN3EwLjE3IDAuNzItMC40OCAxLjA5YTEuMTEgMS4xMSAwIDAgMC0wLjIzIDEuNzZxMS41IDEuNDUgMi40IDAuMDIgMC45MS0xLjQ2IDIuMzctMi40MmExLjQ1IDEuNDMtOC41IDAgMCAwLjU2LTAuNzV6bTIuMjUgOC45NC0yLjA5LTIuOTNhMC43IDAuNyAwIDAgMC0wLjk3LTAuMTdsLTAuMTIgMC4wOGEzLjA4IDIuNDMtMzUuNCAwIDAtMS4xIDMuNzdsMC4wOCAwLjExYTMuMDggMi40My0zNS40IDAgMCAzLjkyIDAuMmwwLjEyLTAuMDhhMC43IDAuNyAwIDAgMCAwLjE2LTAuOTh6bTE4LjE4IDI4LjI1NGEyLjA4IDEuODUgOTQuNCAwIDAgMi4wMDQxLTEuOTMyIDIuMDggMS44NSA5NC40IDAgMC0xLjY4NDktMi4yMTU4IDIuMDggMS44NSA5NC40IDAgMC0yLjAwNDEgMS45MzIgMi4wOCAxLjg1IDk0LjQgMCAwIDEuNjg0OSAyLjIxNTh6Ii8+PHBhdGggaWQ9InBhdGgyOCIgZD0ibTE2Ny4xNyAxODMuMjZjLTIuMSAwLjMyLTQuMDMgMS45NC01LjkgMi4yNy0xMy45NSAyLjUzLTIyLjUxLTEzLjg0LTI2LjA1LTI0LjQ2cS0wLjQtMS4xOSAwLjY2LTEuODZsMTEuOTgtNy41NHExLjc2LTEuMSAxLjAzIDAuODQtMC45NSAyLjU2IDEuODIgMy40NWMxLjA1IDAuMzQgMS41NyAwLjc0IDEuNjQgMS44cTAuMDQgMC41NS0wLjQ3IDAuNzRsLTEuODIgMC42OXEtMC42NyAwLjI2LTAuODEgMC45Ni0wLjQyIDIuMDggMC44OSAzLjY4YTEuMjYgMS4yNiAwIDAgMCAwLjg0IDAuNDRxMS41NSAwLjE1IDIuODEtMC43NmEwLjY0IDAuNjMtMzcuMSAwIDEgMC44OCAwLjEycTAuNjUgMC44NSAwLjgzIDEuOTMgMC4xIDAuNTkgMC42MSAwLjg5bDQuNTMgMi42N2EwLjUyIDAuNTEgMzUuOSAwIDEgMC4xMyAwLjc5cS0wLjY2IDAuNzUtMS41MyAwLjctMC41My0wLjA0LTEuMzEtMC43Ny0yLjI5LTIuMTUtNS4yMiAwLjE1Yy0yLjAxIDEuNTgtMS4xMiA1LjMzIDIuMDUgNC43NyA5LjAyLTEuNjEgMTYuOTctOC4xNCAxNy43LTE3Ljc2cTAuNTYtNy40My01LjY4LTExLjg1Yy0xLjM1LTAuOTYtMi41Ni0wLjY3LTMuOTEgMC4wM2ExLjYxIDEuNjEgMCAwIDEtMi4xNi0wLjY5cS0wLjI5LTAuNTYtMC44LTAuODUtMC41OS0wLjMzLTAuMTktMC44NyAxLjUtMi4wMSAzLjk1LTIuNjQgMC41NS0wLjE0IDAuNTkgMC40M2MwLjEzIDIuMzMgMi4zMiAzLjMyIDQuMjcgMi40NiAxLjE3LTAuNTIgMi4xOC0xLjg4IDMuNDktMi41M3EwLjM0LTAuMTcgMC4xNSAwLjE3Yy0yLjgxIDUuMDQgMi4xNiA4LjIxIDUuNTEgMi41OWEwLjM3IDAuMzYgNDEuNiAwIDEgMC42LTAuMDNsMC41NSAwLjczYTAuNzkgMC43OC00MC45IDAgMS0wLjA4IDEuMDRsLTMuMDggMi45NGEyLjUgMi40OSA0MC41IDAgMCAwLjMxIDMuODVxMS45OCAxLjM3IDQuNDkgMC45MSAwLjY1LTAuMTIgMC42NSAwLjU0djEuMjlxMCAwLjUzLTAuNDcgMC43OWMtNC4yNCAyLjMxLTUuOTggNS4yMS0wLjQ5IDcuOTNxMC40IDAuMiAwLjU1IDAuNjIgMC41NiAxLjQ5LTAuNyAxLjczYy0xLjU4IDAuMy0zLjc4IDAuNDUtNC45IDEuNDktMS43NyAxLjYzLTAuMTIgNC4yOSAxLjI1IDUuODVhMC45MSAwLjg5LTU2LjkgMCAxIDAuMTcgMC44N3EtMC40NCAxLjI5LTEuNTggMi4wOWEwLjkgMC45IDAgMCAxLTAuODQgMC4xMWMtMS4wNS0wLjM4LTIuMTMtMS4xMi0zLjE3LTEuMTYtMy4yOS0wLjE1LTQuNzggMi45MS0yLjY2IDUuNTZhMS43NyAxLjc3IDAgMCAxLTEuMTEgMi44NnptLTE3LjY2LTQuNzVxMS41Ni0wLjQ1IDIuMDgtMS45NmEwLjMxIDAuMyA4LjYgMCAwLTAuMy0wLjRsLTQuNzQgMC4wOXEtMC41MiAwLjAxLTAuNTYgMC41My0wLjEgMS41NiAwLjk3IDIuNzJhMS4wMyAxLjAzIDAgMCAwIDAuOTEgMC4zMnEwLjYtMC4wOSAwLjgzLTAuNTkgMC4yNC0wLjU1IDAuODEtMC43MXptOS4yMyA2LjkzYzIuNzUtMC4xIDUuMDgtMC44NyA0LjQ4LTQuMzFhMC44NSAwLjg1IDAgMCAwLTEuMTUtMC42M3EtMi41OSAxLjA3LTQuMjIgMy4yNmExLjA2IDEuMDUgMTcuMiAwIDAgMC44OSAxLjY4eiIvPjwvZz48ZWxsaXBzZSBpZD0iZWxsaXBzZTI4IiBmaWxsPSIjMGEwZjExIiByeT0iMy4xNiIgcng9IjMuNDMiIHRyYW5zZm9ybT0idHJhbnNsYXRlKDE5MS43MiwxNDMuNDIpIHJvdGF0ZSgxMjEuMikiLz48Y2lyY2xlIGlkPSJjaXJjbGUyOCIgZmlsbD0iIzBhMGYxMSIgcj0iMy4yOSIgY3k9IjE0My41MiIgY3g9IjQ4LjgyIi8+PHBhdGggaWQ9InBhdGgyOSIgZmlsbD0iIzA5NmVkMCIgZD0ibTMzLjExIDE0MS43OWMyLjY1IDEuNjUgMi45NyA1LjE5IDIuMzEgOC4wMWEwLjMgMC4zIDAgMCAxLTAuNTcgMC4wNGwtMi4zMS02LjE4cS0wLjE0LTAuMzYtMC4wNy0wLjc1bDAuMTYtMC45cTAuMDgtMC40NyAwLjQ4LTAuMjJ6Ii8+PHBhdGggaWQ9InBhdGgzMCIgZmlsbD0iIzA5NmVkMCIgZD0ibTIwNy4xIDE0Mi42M3EwLjM0LTAuNzEgMS4wNC0wLjM0bDAuMzcgMC4xOWEwLjgyIDAuODIgMCAwIDEgMC4zMSAxLjE1cS0yLjA4IDMuNDktMS42NSA3LjU4IDAuMDkgMC44OC0wLjQ1IDAuMTljLTEuNzUtMi4yMi0wLjcxLTYuNTEgMC4zOC04Ljc3eiIvPjxwYXRoIGlkPSJwYXRoMzEiIGZpbGw9IiNmY2ZkZmQiIGQ9Im0xNjMuNTggMTY3LjY4Yy02LjgtMy4wOC0xMC4yNC0xMC44MS0xMC4zOS0xNy45MnEtMC4wNC0xLjg0IDEuNTItMy4xMiAwLjktMC43NSAxLjUxIDAuMjVjMy41MiA1Ljg0IDcuMTcgOC44NSAxNC4wOSA5Ljg2cTAuNjcgMC4xIDAuNTcgMC43Ny0wLjkzIDUuODMtNS4yNiA5Ljg0LTAuOTEgMC44NC0yLjA0IDAuMzJ6Ii8+PHBhdGggaWQ9InBhdGgzMiIgZmlsbD0iI2ZjZmRmZCIgZD0ibTc3LjI3IDE2Ny40OGMtMy43IDEuNS03LjAyLTcuNTktNy4zNS0xMC4yYTAuNjEgMC42IDg0LjEgMCAxIDAuNTUtMC42OHE5Ljc0LTAuNzggMTMuOTUtOS40MyAwLjI1LTAuNSAwLjc2LTAuMjljMS42MSAwLjY2IDIuMzQgMS42MiAyLjI2IDMuNDUtMC4zMiA3LTMuMjkgMTQuMzYtMTAuMTcgMTcuMTV6Ii8+PHBhdGggaWQ9InBhdGgzMyIgZmlsbD0iIzA5NmVkMCIgZD0ibTE2Ny4zMSAxNTIuMDNxLTEuNTEtMC42Ni0yLjI2LTIuMTYtMC4yNS0wLjQ4LTAuNzItMC43NC0xLjM5LTAuNzYtMi42IDAuNGEwLjg3IDAuODYgMzguOCAwIDEtMS4wNSAwLjExcS0xLjE4LTAuNzEtMS4zMy0yLjA5LTAuMDctMC41NiAwLjQ5LTAuNDljNC4zMSAwLjU1IDYuNzYtMC41NCA5LjM1IDMuODRhMC44MSAwLjgtMzEuNyAwIDEtMC4yNiAxLjA4cS0wLjcyIDAuNDYtMS42MiAwLjA1eiIvPjxnIGlkPSJnMzYiIGZpbGw9IiMwYTBmMTEiPjxwYXRoIGlkPSJwYXRoMzQiIGQ9Im03My41MSAxNTEuNjVhMC43IDAuNyAwIDAgMS0wLjE2IDAuOThsLTAuMTIgMC4wOGEzLjA4IDIuNDMtMzUuNCAwIDEtMy45Mi0wLjJsLTAuMDgtMC4xMWEzLjA4IDIuNDMtMzUuNCAwIDEgMS4xLTMuNzdsMC4xMi0wLjA4YTAuNyAwLjcgMCAwIDEgMC45NyAwLjE3bDIuMDkgMi45M3oiLz48ZWxsaXBzZSBpZD0iZWxsaXBzZTM0IiByeT0iMS44NSIgcng9IjIuMDgiIHRyYW5zZm9ybT0idHJhbnNsYXRlKDkxLjg1LDE3Ny44Mykgcm90YXRlKDk0LjQpIi8+PHBhdGggaWQ9InBhdGgzNSIgZD0ibTE0OC43IDE3OS4yMnEtMC4yMyAwLjUtMC44MyAwLjU5YTEuMDMgMS4wMyAwIDAgMS0wLjkxLTAuMzJxLTEuMDctMS4xNi0wLjk3LTIuNzIgMC4wNC0wLjUyIDAuNTYtMC41M2w0Ljc0LTAuMDlhMC4zMSAwLjMgOC42IDAgMSAwLjMgMC40cS0wLjUyIDEuNTEtMi4wOCAxLjk2LTAuNTcgMC4xNi0wLjgxIDAuNzF6Ii8+PHBhdGggaWQ9InBhdGgzNiIgZD0ibTE2My4yMiAxODEuMTNjMC42IDMuNDQtMS43MyA0LjIxLTQuNDggNC4zMWExLjA2IDEuMDUgMTcuMiAwIDEtMC44OS0xLjY4cTEuNjMtMi4xOSA0LjIyLTMuMjZhMC44NSAwLjg1IDAgMCAxIDEuMTUgMC42M3oiLz48L2c+PGcgaWQ9IlppcHB5TW91dGgiIHRyYW5zZm9ybT0idHJhbnNsYXRlKDg1LjU5NCA4NS45MTMpIj48cGF0aCBpZD0icGF0aDM3IiBzdHJva2Utd2lkdGg9IjIiIHN0cm9rZT0iI2YxZjBmMCIgZmlsbD0ibm9uZSIgZD0ibTUzLjAyIDEzLjc0Yy02IDAuNS0xMi41LTEuNjMtMTguMy0zLjQycS0xLjI1LTAuMzktMS45OC0wLjExLTcuMjcgMi44Ni0xMy45OSAzLjgxLTMuOTkgMC41NyAwLjA0IDAuNzZjMi40OSAwLjEyIDUuNDUtMC4xMyA3Ljk0IDAuMDZxMTEuMDYgMC44MiAyMS45MiA0LjUiLz48cGF0aCBpZD0icGF0aDM4IiBmaWxsPSIjZmZmIiBkPSJtNTMuMDIgMTMuNzRjLTYgMC41LTEyLjUtMS42My0xOC4zLTMuNDJxLTEuMjUtMC4zOS0xLjk4LTAuMTEtNy4yNyAyLjg2LTEzLjk5IDMuODEtMy45OSAwLjU3IDAuMDQgMC43NmMyLjQ5IDAuMTIgNS40NS0wLjEzIDcuOTQgMC4wNnExMS4wNiAwLjgyIDIxLjkyIDQuNWMtMTAuMzkgOS4zOC0yNS43MSA3LjExLTMyLjczLTQuOTJxLTAuMjMtMC4zOS0wLjY4LTAuMzktMi4zNy0wLjAxLTQuMzQtMS4yOS0xLjY3LTEuMS0wLjQ4LTIuNzFsMC4yNC0wLjMzYTEuNTEgMS41MSAwIDAgMSAxLjkxLTAuNDVjNS4wNSAyLjU3IDE0LjEzLTAuOTcgMTkuMjUtMi45NWE0LjcyIDQuNjktNDkuNSAwIDEgMi42OC0wLjIyYzYuMTggMS4zMSAxNC40MSA1LjQ2IDIwLjU1IDMuMjcgMC45Ny0wLjM0IDIuMjQtMC4xNiAyLjcxIDAuNjlhMi4wNyAyLjA3IDAgMCAxLTAuNjYgMi43cS0xLjQgMC45NS00LjA4IDF6Ii8+PHBhdGggaWQ9InBhdGgzOSIgZmlsbD0iI2UyZTBlMCIgZD0ibTUzLjAyIDEzLjc0LTQuMzcgNS42cS0xMC44Ni0zLjY4LTIxLjkyLTQuNWMtMi40OS0wLjE5LTUuNDUgMC4wNi03Ljk0LTAuMDZxLTQuMDMtMC4xOS0wLjA0LTAuNzYgNi43Mi0wLjk1IDEzLjk5LTMuODEgMC43My0wLjI4IDEuOTggMC4xMWM1LjggMS43OSAxMi4zIDMuOTIgMTguMyAzLjQyeiIvPjwvZz48L3N2Zz4=;fontFamily=Helvetica;" vertex="1" parent="1">
          <mxGeometry x="-348.08000000000004" y="160" width="156.16" height="149" as="geometry" />
        </mxCell>
        <mxCell id="p87asnX_9dNi2kme-AvX-33" style="edgeStyle=orthogonalEdgeStyle;orthogonalLoop=1;jettySize=auto;html=1;fillColor=#60a917;strokeColor=#808080;strokeWidth=1;rounded=1;fontFamily=Helvetica;" edge="1" parent="1" source="p87asnX_9dNi2kme-AvX-27" target="p87asnX_9dNi2kme-AvX-24">
          <mxGeometry relative="1" as="geometry" />
        </mxCell>
        <mxCell id="p87asnX_9dNi2kme-AvX-27" value="&lt;font&gt;Lips-sync&lt;/font&gt;" style="rounded=1;whiteSpace=wrap;html=1;fillColor=#d0cee2;strokeColor=#56517e;shadow=0;fontFamily=Helvetica;" vertex="1" parent="1">
          <mxGeometry x="-270" y="690" width="120" height="60" as="geometry" />
        </mxCell>
        <mxCell id="p87asnX_9dNi2kme-AvX-42" style="edgeStyle=orthogonalEdgeStyle;orthogonalLoop=1;jettySize=auto;html=1;entryX=0.5;entryY=0;entryDx=0;entryDy=0;fillColor=#60a917;strokeColor=#808080;strokeWidth=1;rounded=1;fontFamily=Helvetica;" edge="1" parent="1" source="p87asnX_9dNi2kme-AvX-40" target="p87asnX_9dNi2kme-AvX-4">
          <mxGeometry relative="1" as="geometry" />
        </mxCell>
        <mxCell id="p87asnX_9dNi2kme-AvX-44" style="edgeStyle=orthogonalEdgeStyle;orthogonalLoop=1;jettySize=auto;html=1;entryX=0;entryY=0.5;entryDx=0;entryDy=0;fillColor=#60a917;strokeColor=#808080;strokeWidth=1;rounded=1;fontFamily=Helvetica;" edge="1" parent="1" source="p87asnX_9dNi2kme-AvX-40" target="p87asnX_9dNi2kme-AvX-24">
          <mxGeometry relative="1" as="geometry" />
        </mxCell>
        <mxCell id="p87asnX_9dNi2kme-AvX-40" value="Text" style="rounded=1;whiteSpace=wrap;html=1;fillColor=#fad7ac;strokeColor=#b46504;shadow=0;fontFamily=Helvetica;" vertex="1" parent="1">
          <mxGeometry x="-720" y="520" width="120" height="60" as="geometry" />
        </mxCell>
        <mxCell id="p87asnX_9dNi2kme-AvX-56" value="" style="group" vertex="1" connectable="0" parent="1">
          <mxGeometry x="-80" y="15" width="90" height="90" as="geometry" />
        </mxCell>
        <mxCell id="p87asnX_9dNi2kme-AvX-45" value="" style="rounded=0;whiteSpace=wrap;html=1;fillColor=#b0e3e6;strokeColor=#0e8088;" vertex="1" parent="p87asnX_9dNi2kme-AvX-56">
          <mxGeometry y="5" width="20" height="20" as="geometry" />
        </mxCell>
        <mxCell id="p87asnX_9dNi2kme-AvX-46" value="Input" style="text;html=1;strokeColor=none;fillColor=none;align=left;verticalAlign=middle;whiteSpace=wrap;rounded=0;" vertex="1" parent="p87asnX_9dNi2kme-AvX-56">
          <mxGeometry x="30" width="60" height="30" as="geometry" />
        </mxCell>
        <mxCell id="p87asnX_9dNi2kme-AvX-49" value="" style="rounded=0;whiteSpace=wrap;html=1;fillColor=#fad7ac;strokeColor=#b46504;" vertex="1" parent="p87asnX_9dNi2kme-AvX-56">
          <mxGeometry y="35" width="20" height="20" as="geometry" />
        </mxCell>
        <mxCell id="p87asnX_9dNi2kme-AvX-50" value="Output" style="text;html=1;strokeColor=none;fillColor=none;align=left;verticalAlign=middle;whiteSpace=wrap;rounded=0;" vertex="1" parent="p87asnX_9dNi2kme-AvX-56">
          <mxGeometry x="30" y="30" width="60" height="30" as="geometry" />
        </mxCell>
        <mxCell id="p87asnX_9dNi2kme-AvX-54" value="" style="rounded=0;whiteSpace=wrap;html=1;fillColor=#d0cee2;strokeColor=#56517e;" vertex="1" parent="p87asnX_9dNi2kme-AvX-56">
          <mxGeometry y="65" width="20" height="20" as="geometry" />
        </mxCell>
        <mxCell id="p87asnX_9dNi2kme-AvX-55" value="Process" style="text;html=1;strokeColor=none;fillColor=none;align=left;verticalAlign=middle;whiteSpace=wrap;rounded=0;" vertex="1" parent="p87asnX_9dNi2kme-AvX-56">
          <mxGeometry x="30" y="60" width="60" height="30" as="geometry" />
        </mxCell>
      </root>
    </mxGraphModel>
  </diagram>
</mxfile>
